<?xml version="1.0" encoding="UTF-8"?>
<svg id="vanilla-banana-icon" data-name="vanilla banana" xmlns="http://www.w3.org/2000/svg" xmlns:xlink="http://www.w3.org/1999/xlink" version="1.1" viewBox="0 0 250 250">
  <defs>
    <style>
      .cls-1 {
        fill: #560530;
      }

      .cls-1, .cls-2, .cls-3, .cls-4, .cls-5 {
        stroke-width: 0px;
      }

      .cls-2 {
        fill: #eee46e;
      }

      .cls-3 {
        fill: #cdb03b;
      }

      .cls-4 {
        fill: #e5ce6c;
      }

      .cls-6 {
        filter: url(#drop-shadow-1);
      }

      .cls-5 {
        fill: #f9f4e7;
      }

      .cls-7 {
        opacity: .45;
      }

      #vanilla-banana-icon:hover #banana-text {
        fill: rgb(42, 21, 5);
      }

    </style>
    <script>
    let svg = document.querySelector("#vanilla-banana-icon");

    function logID() {
      console.log(this.id);
    }
        
    svg.addEventListener("click", logID);

    </script>
    <filter id="drop-shadow-1" filterUnits="userSpaceOnUse">
      <feOffset dx="4" dy="2"/>
      <feGaussianBlur result="blur" stdDeviation="0"/>
      <feFlood flood-color="#560530" flood-opacity=".45"/>
      <feComposite in2="blur" operator="in"/>
      <feComposite in="SourceGraphic"/>
    </filter>
  </defs>
  <g id="banana_shape" data-name="banana shape">
    <g class="cls-7">
      <path class="cls-1" d="M206.22,161.11H48.51c-2.92,0-5.28-2.36-5.28-5.28,0-20.62,0-41.24,0-61.86,0-2.92,2.36-5.28,5.28-5.28h157.71c2.92,0,5.28,2.36,5.28,5.28,0,20.62,0,41.24,0,61.86,0,2.92-2.36,5.28-5.28,5.28Z"/>
    </g>
    <path class="cls-4" d="M202.22,158.11H44.51c-2.92,0-5.28-2.36-5.28-5.28,0-20.62,0-41.24,0-61.86,0-2.92,2.36-5.28,5.28-5.28h157.71c2.92,0,5.28,2.36,5.28,5.28,0,20.62,0,41.24,0,61.86,0,2.92-2.36,5.28-5.28,5.28Z"/>
  </g>
  <path id="banana-text" class="cls-5" d="M47.7,96.99h13.14c-.27.27-.89.61-.45,2.19.91,3.27,4.58,11.45,5.31,16.89,3-8.55-2.53-18.81-2.78-19.08h12.31c-2.48,2.64-8.33,19.64-7.73,22.41h-12.06c.59-2.77-5.25-19.77-7.73-22.41ZM72.42,113.1c0-3.5,2.59-7.06,8.23-7.06,1.81,0,3.55.48,4.31,1.48.14-2.38-1.81-3.38-4.17-3.38-2.2,0-4.78.66-6.36,1.89v-3.39c2.52-.36,5.14-.61,7.64-.61,7.02,0,13.05,1.97,13.05,8.84,0,3.14.12,4.77.31,6.5.17,1.59.7,1.77.97,2.02h-12.61c.22-.25.72-.42.92-2.02l.09-.8c-.19.61-2.14,3.2-5.59,3.2-4.39,0-6.8-3.31-6.8-6.69ZM85.08,111.71c0-1.84-.39-2.97-1.03-2.97s-1.03,1.12-1.03,2.97.39,3.02,1.03,3.02,1.03-1.12,1.03-3.02ZM97.95,117.38c.2-1.7.33-3.23.33-6.3,0-3.38-.09-4.75-.33-6.59-.2-1.58-.7-1.77-.92-2.02h11.33v2.06c1.2-1.3,3.11-2.45,5.89-2.45,2.39,0,4.31.92,5.38,2.59.98,1.56,1.08,2.78,1.08,6.2,0,3.14.14,4.77.33,6.5.17,1.59.7,1.77.95,2.02h-12.61c.23-.25.75-.42.94-2.02.2-1.7.31-3.23.31-6.3,0-2.8.03-4.88-1.14-4.88-1.02,0-1.12,1.44-1.12,3.7v9.48h-11.33c.22-.25.73-.42.92-2.02ZM123.53,117.38c.2-1.7.33-3.23.33-6.3,0-3.38-.09-4.75-.33-6.59-.2-1.58-.7-1.77-.92-2.02h11.33v8.41c0,3.14.12,4.77.31,6.5.2,1.59.7,1.77.97,2.02h-12.61c.22-.25.73-.42.92-2.02ZM122.76,96.71c0-2.56,2.72-4.67,6.05-4.67s6.08,2.11,6.08,4.67-2.72,4.7-6.08,4.7-6.05-2.11-6.05-4.7ZM136.7,98.94c-.19-1.56-.64-1.69-.86-1.95h12.39c-.27.27-.78.45-.97,2.02-.47,3.97-.47,14.44,0,18.38.19,1.59.7,1.77.97,2.02h-11.38c0-12.12.11-18.34-.16-20.45ZM149.72,98.94c-.19-1.56-.64-1.69-.86-1.95h12.39c-.27.27-.78.45-.97,2.02-.47,3.97-.47,14.44,0,18.38.19,1.59.7,1.77.97,2.02h-11.38c0-12.12.11-18.34-.16-20.45ZM162.09,113.1c0-3.5,2.59-7.06,8.23-7.06,1.81,0,3.55.48,4.31,1.48.14-2.38-1.81-3.38-4.17-3.38-2.2,0-4.78.66-6.36,1.89v-3.39c2.52-.36,5.14-.61,7.64-.61,7.02,0,13.05,1.97,13.05,8.84,0,3.14.12,4.77.31,6.5.17,1.59.7,1.77.97,2.02h-12.61c.22-.25.72-.42.92-2.02l.09-.8c-.19.61-2.14,3.2-5.59,3.2-4.39,0-6.8-3.31-6.8-6.69ZM174.75,111.71c0-1.84-.39-2.97-1.03-2.97s-1.03,1.12-1.03,2.97.39,3.02,1.03,3.02,1.03-1.12,1.03-3.02ZM48.62,147.38c.47-3.97.44-14.41,0-18.38-.17-1.56-.7-1.75-.92-2.02h8.77c5.83,0,13.7-.5,13.7,3.78,0,2.86-2.56,3.72-4.31,3.94,3.78.44,6.58,3.09,6.58,6.78,0,8.55-8.98,7.91-16.12,7.91h-8.61c.22-.25.73-.45.92-2.02ZM62.17,141.43c0-3.64-.2-5.34-3.12-5.36l-.02,4.47c.03,2.08-.08,5.19.36,6.95,2.52-.34,2.78-2.59,2.78-6.06ZM61.4,131.49c0-2.19-1.02-2.55-2.36-2.55,0,1.52.05,3.66.02,5.19,1.72,0,2.34-1.02,2.34-2.64ZM73.84,143.1c0-3.5,2.59-7.06,8.23-7.06,1.81,0,3.55.48,4.31,1.48.14-2.38-1.81-3.38-4.17-3.38-2.2,0-4.78.66-6.36,1.89v-3.39c2.52-.36,5.14-.61,7.64-.61,7.02,0,13.05,1.97,13.05,8.84,0,3.14.12,4.77.31,6.5.17,1.59.7,1.77.97,2.02h-12.61c.22-.25.72-.42.92-2.02l.09-.8c-.19.61-2.14,3.2-5.59,3.2-4.39,0-6.8-3.31-6.8-6.69ZM86.5,141.71c0-1.84-.39-2.97-1.03-2.97s-1.03,1.12-1.03,2.97.39,3.02,1.03,3.02,1.03-1.12,1.03-3.02ZM99.37,147.38c.2-1.7.33-3.23.33-6.3,0-3.38-.09-4.75-.33-6.59-.2-1.58-.7-1.77-.92-2.02h11.33v2.06c1.2-1.3,3.11-2.45,5.89-2.45,2.39,0,4.31.92,5.38,2.59.98,1.56,1.08,2.78,1.08,6.2,0,3.14.14,4.77.33,6.5.17,1.59.7,1.77.95,2.02h-12.61c.23-.25.75-.42.94-2.02.2-1.7.31-3.23.31-6.3,0-2.8.03-4.88-1.14-4.88-1.02,0-1.12,1.44-1.12,3.7v9.48h-11.33c.22-.25.73-.42.92-2.02ZM124.09,143.1c0-3.5,2.59-7.06,8.23-7.06,1.81,0,3.55.48,4.31,1.48.14-2.38-1.81-3.38-4.17-3.38-2.2,0-4.78.66-6.36,1.89v-3.39c2.52-.36,5.14-.61,7.64-.61,7.02,0,13.05,1.97,13.05,8.84,0,3.14.12,4.77.31,6.5.17,1.59.7,1.77.97,2.02h-12.61c.22-.25.72-.42.92-2.02l.09-.8c-.19.61-2.14,3.2-5.59,3.2-4.39,0-6.8-3.31-6.8-6.69ZM136.75,141.71c0-1.84-.39-2.97-1.03-2.97s-1.03,1.12-1.03,2.97.39,3.02,1.03,3.02,1.03-1.12,1.03-3.02ZM149.62,147.38c.2-1.7.33-3.23.33-6.3,0-3.38-.09-4.75-.33-6.59-.2-1.58-.7-1.77-.92-2.02h11.33v2.06c1.2-1.3,3.11-2.45,5.89-2.45,2.39,0,4.31.92,5.38,2.59.98,1.56,1.08,2.78,1.08,6.2,0,3.14.14,4.77.33,6.5.17,1.59.7,1.77.95,2.02h-12.61c.23-.25.75-.42.94-2.02.2-1.7.31-3.23.31-6.3,0-2.8.03-4.88-1.14-4.88-1.02,0-1.12,1.44-1.12,3.7v9.48h-11.33c.22-.25.73-.42.92-2.02ZM174.34,143.1c0-3.5,2.59-7.06,8.23-7.06,1.81,0,3.55.48,4.31,1.48.14-2.38-1.81-3.38-4.17-3.38-2.2,0-4.78.66-6.36,1.89v-3.39c2.52-.36,5.14-.61,7.64-.61,7.02,0,13.05,1.97,13.05,8.84,0,3.14.12,4.77.31,6.5.17,1.59.7,1.77.97,2.02h-12.61c.22-.25.72-.42.92-2.02l.09-.8c-.19.61-2.14,3.2-5.59,3.2-4.39,0-6.8-3.31-6.8-6.69ZM187,141.71c0-1.84-.39-2.97-1.03-2.97s-1.03,1.12-1.03,2.97.39,3.02,1.03,3.02,1.03-1.12,1.03-3.02Z"/>
  <g id="banana-pic" class="cls-6">
    <g>
      <path class="cls-2" d="M30.34,125.59s11.24,43.57,61.08,29.35c1.29-.37,2.64-.56,3.99-.45,2.14.18,4,1.12-1.25,4.87-1.59,1.14-3.19,2.2-4.74,3.17-9.91,6.22-26.21,12.32-37.76,10.49-7.74-1.23-11.15-6.25-14.53-10.5-7.95-10-10.34-26.69-10.34-26.69l-1.68-8.7-2.4-3.45c-1.06-1.52-.31-3.63,1.46-4.15l4.84-1.42c1.45-.43,2.83.86,2.49,2.34l-1.16,5.15Z"/>
      <g>
        <path class="cls-3" d="M31.58,125.61c-.09.3.14.24.17.29.07-.53-.22-.29-.17-.29Z"/>
        <path class="cls-3" d="M32.26,120.36l.06.14c0-.36-.09-.72-.22-1.04.1.28.16.59.15.9Z"/>
        <path class="cls-3" d="M27.9,117.65c.14.05.31.05.5,0,.21-.04.38-.12.72-.21.62-.17,1.43-.05,1.88.34.04.06.08.11.11.17.19.03.39.07.59.15-.51-.57-1.39-.9-2.18-.84-.39.03-.78.16-.98.23-.24.07-.46.13-.64.16Z"/>
        <path class="cls-3" d="M25.19,117.64c.19.09-.51.27.59-.13-.06,0-.08,0-.12,0-.1.03-.24.07-.48.13Z"/>
        <path class="cls-3" d="M25.67,117.51c.49-.15-.35-.02,0,0h0Z"/>
        <path class="cls-3" d="M23.26,118.33l.78-.39c-.1-.01-.22,0-.45.04-.22.05-.37.09-.21,0-1,.53-.71.51-.12.35Z"/>
        <path class="cls-3" d="M22.57,119.04c.13-.11.26-.22.39-.32-.09.01-.22.08-.39.32Z"/>
        <path class="cls-3" d="M23.88,118.22c-.25.11-.64.3-.92.5.16-.01.21.08.43-.25-.06.14.15-.06.49-.24Z"/>
        <path class="cls-3" d="M24.3,118.15c.39-.03.87-.12.25.19,1.23-.41.97-.6-.25-.19Z"/>
        <path class="cls-3" d="M27.77,118.07l.52-.04.39-.24c-.19.12-.96.18-.9.28Z"/>
        <path class="cls-3" d="M20.94,123.8c.09.03.05-.41.14-.51-.11-.23-.17-.47-.24-.72-.02.4.16,1.14.1,1.22Z"/>
        <path class="cls-3" d="M21.08,123.29c.14.34.35.66.57.93-.47-.83-.49-1.02-.57-.93Z"/>
        <path class="cls-3" d="M22.69,119.45c.33-.41.85-.75,1.28-.97-.54.24-1.15.66-1.51,1.17.07-.07.15-.14.22-.21Z"/>
        <polygon class="cls-3" points="22.67 126.47 22.28 126.22 22.93 126.69 22.67 126.47"/>
        <path class="cls-3" d="M23.59,127.75c-.08,0-.12.05-.16.07-.05.03-.1.05-.15.06,0,.01.01-.04.04.02.04.11.08.22.13.33.09.21.19.4.28.58-.07-.2-.12-.4-.15-.63-.02-.11-.03-.24-.04-.35.02-.02.03-.05.05-.08h0Z"/>
        <path class="cls-3" d="M24.01,129.44c-.07-.2-.18-.4-.29-.62.07.21.16.42.29.62Z"/>
        <path class="cls-3" d="M22.36,125.33c0,.07-.04.23.16.61v-.36c-.04-.07-.1-.16-.16-.24Z"/>
        <path class="cls-3" d="M22.53,125.56h0c.18.28.3.46.35.54-.04-.07-.15-.23-.35-.54Z"/>
        <path class="cls-3" d="M22.32,125.27s.03.04.04.06c0-.04,0-.05-.04-.06Z"/>
        <path class="cls-3" d="M21.29,121.56c-.01.64.33,1.72.38.62-.13-.4-.29.27-.38-.62Z"/>
        <path class="cls-3" d="M22.33,124.82l-.42-.7s0,.26-.21.04c.24.29.42.43.63.66Z"/>
        <polygon class="cls-3" points="22.61 125.1 22.33 124.82 22.49 125.07 22.61 125.1"/>
        <path class="cls-3" d="M23.95,128.07c.16.32.23.68.33,1.09-.04-.45-.11-.92-.2-1.35-.08-.04-.23-.21-.13.26Z"/>
        <path class="cls-3" d="M23.52,127.04l.05.06s-.03-.08-.05-.06Z"/>
        <polygon class="cls-3" points="25.07 133.25 25.09 133.17 25.05 133.17 25.07 133.25"/>
        <path class="cls-3" d="M24.11,127.74c0-.08,0-.14-.03-.18-.05-.04-.1-.06-.15-.07.03.03.06.06.09.1.02.08.03.08.06.24.04.02.06.02.02-.08Z"/>
        <path class="cls-3" d="M24.33,130.56c.01-.18.01-.39,0-.6-.03.18-.07.55,0,.6Z"/>
        <path class="cls-3" d="M23.59,127.22l-.04-.04c.03.12.04.09.04.04Z"/>
        <path class="cls-3" d="M23.59,127.22c.11.11.28.25.34.26-.08-.08-.25-.28-.35-.38.01.04.02.09.02.13Z"/>
        <path class="cls-3" d="M26.66,134.25c-.21-.03-.56-.87-.49-1.67-.29-.72-.84-.12-1.07.6.09,0,.17,0,.43.74.05-.29-.08-1.75.22-1.13.3,1,.09.85.08,1.36.16-.46.6,1.23.92.95l-.3-.87c.05-.03.2.28.21.03Z"/>
        <path class="cls-3" d="M24.83,131.71l-.08-.31c.04.37,0,.64-.05,1.14.2.51.29.6.36.63l-.27-1.56.05.1Z"/>
        <path class="cls-3" d="M24.47,129.98c.26.21.5.95.64.44-.19-.92-.3-.62-.5-1.15.34,1.49-.2-.41-.11.7-.09-.29-.15-.55-.21-.8.03.27.04.54.05.79,0-.01,0-.02,0-.04h0s0,0,0,0c.01-.07.03-.09.03-.02,0,0,0,.02.01.03.03,0,.06.03.09.05.04.44-.04.08-.09-.05-.01,0-.02-.01-.04-.01h0s.4,1.48.4,1.48c-.03-.32-.11-.72-.27-1.42Z"/>
        <path class="cls-3" d="M22.29,123c0,.05-.02.06-.03.06.06.09.08.12.03-.06Z"/>
        <path class="cls-3" d="M22.45,123.65c-.09-.08-.23-.13-.36-.51-.04-.35.1-.03.16-.07-.13-.18-.36-.77-.27,0l.06.11c.08.32.25.76.32,1,.08.26.12.44.08.41.06-.26.08-.45,0-.93Z"/>
        <path class="cls-3" d="M24.14,126.84l.25.3.19.21.11.36c.02-.17.04-.27.06-.43l-.03-.13-.09.07c-.13-.22-.26-.37-.32-.39-.07-.03-.1.02-.17,0Z"/>
        <polygon class="cls-3" points="24.99 133.41 24.73 133.28 25.19 133.95 24.99 133.41"/>
        <polygon class="cls-3" points="25.33 135.02 25.12 135 25.32 135.4 25.33 135.02"/>
        <path class="cls-3" d="M92.99,158.7l.28-.25c-.14.11-.22.19-.28.25Z"/>
        <path class="cls-3" d="M90.76,160.18v.12c.07-.11.09-.17,0-.12Z"/>
        <path class="cls-3" d="M43.79,171.26c.38.47.81,1.07.86.84l-.04-.28c-.37-.18-.62-.37-.82-.55Z"/>
        <path class="cls-3" d="M71.43,170.64c-.06,0-.11,0-.17-.01-.1.11-.2.21-.29.3.14-.09.3-.19.46-.29Z"/>
        <path class="cls-3" d="M71.52,169.66l.72-.09c-.17,0-.4.03-.72.09Z"/>
        <path class="cls-3" d="M89.45,156.9l-.38.32c.67-.17.35-.21.38-.32Z"/>
        <path class="cls-3" d="M29.81,151.6c.09.48.19.85.32,1.16-.12-.58-.09-1.09-.32-1.16Z"/>
        <path class="cls-3" d="M93.42,161.18c.17-.16.23-.25.19-.29-.18.16-.27.27-.19.29Z"/>
        <path class="cls-3" d="M30.67,154.04c-.02-.09-.03-.17-.05-.25-.17-.31-.34-.62-.49-1.02.08.43.22.9.55,1.28Z"/>
        <path class="cls-3" d="M39.02,143.97l-.06-.11s0,.05.06.11Z"/>
        <path class="cls-3" d="M32.73,129.51c.07.13.17.36.26.57-.03-.11-.11-.28-.26-.57Z"/>
        <path class="cls-3" d="M26.55,141.66c-.09-.34-.04-.05,0,0h0Z"/>
        <path class="cls-3" d="M27.01,139.78c.04.07.08.12.13.12-.06-.02-.1-.06-.13-.12Z"/>
        <path class="cls-3" d="M33.41,156.65v.03c0-.11,0-.09,0-.03Z"/>
        <path class="cls-3" d="M26.53,141.11c0,.14.02.29.04.46,0-.08-.01-.22-.04-.46Z"/>
        <path class="cls-3" d="M26.45,141.2c-.02-.12-.04-.22-.05-.31-.05-.04-.06,0,.05.31Z"/>
        <path class="cls-3" d="M26.68,142.14c-.06-.2-.09-.38-.11-.57,0,.07,0,.1-.02.09.03.1.06.24.13.48Z"/>
        <path class="cls-3" d="M64.31,157.75s-.05-.02-.07-.03c-.37.04-.21.05.07.03Z"/>
        <path class="cls-3" d="M53.14,172.16s-.03,0-.04,0c.02,0,.03,0,.05.01v-.02Z"/>
        <path class="cls-3" d="M54.35,172.11c-.54.27-.83.17-1.21.07l.34.67c.29-.23.58-.48.87-.74Z"/>
        <path class="cls-3" d="M95.63,155.9c0,.11-.05.24-.16.33-.22-.08-.38-.05-.44-.03-.08.02-.09.07-.25.18.2-.13.34-.19.43-.16.09.02.09.12.05.18-.03.07-.08.13-.09.21,0,.08-.1.28.03.39-.13.06-.22.08-.42.17.13-.1.13-.14.19-.2-.93.35-.25.87-1.44,1.62-.45.24-.8.35-.56.1l-.84.76c-.28.17-.28.03,0-.14l-1.39,1v-.02c-.14.22-.52.67-.7.88-.42.16.14-.18,0-.19l-.7.67c-.42.07.15-.52.7-.86-1.11-.1-.55.62-2.38,1.25l.71-.53c-.69-.04-1.2.45-2.19.73.28.01,2.02-.5,1.24.17-.27.11-.61.28-1.03.66-.12-.21-.57.11-1.15.45l-.11-.3c-.59.44-.47.54-.78.87-.74.35-1,.2-1.27.1-1.18.55.98-.06-.37.7-1.04.35-1.65.82-2.77,1.52-.74.2.04-.23-.25-.21l-.51.5c-.15.06-.14-.03-.13-.08-.48.32.08.31-.7.75-.09.42-1.9.22-2.78.99-.29,0,.05-.23-.07-.32-1.33.76-1.15.63-2.21,1.38l-1.08.13c.82-.01-.04.56-.81,1.06.3.02.56.05.73.04-.43.2-.86.41-1.3.59-.18,0-.07-.15.11-.34-.08.05-.16.1-.23.14-.52.03-.32-.22-.02-.49l.54.04c.27-.29.52-.6.39-.76-.08.06-.23.15-.41.22.07-.08.11-.14.06-.16-.06-.02-.17.1-.37.24l-.41-.25-.03.16-1.81.29c-1.16.66-2.14,1.5-4.17,2.03.46-.36.03-.44,0-.75.62.21,1.54-.44,2.59-.65-.55.1-.47-.07-.34-.16-.59.26-1.19.49-1.8.71,0-.26-.44-.11-.94-.11.23.21-.1.36-.59.5-.49.12-1.13.21-1.5.34-.07-.16.09-.36,1.03-.46-1.08-.23-1.25.8-2.31.6.23-.02.36-.01.44-.11-.52.22-1.85.21-1.55.04l.23-.03c-1.53.17-4.63.19-4.88.58-.01-.06.22-.51.31-.59-.46.22-.92.45-1.4.66l-1.46.55c.28-.34-.51-1.3.76-1.37-.35-.1-.78-.18-1.54-.18.22.11.52.61.18.61-.83-.59-.61-.31-1.61-.91.33.17-.19.62-.76.45.11-.06.11-.55.33-.56-.51.07-1.01.07-1.54.09.38.03.22-.43-.01-.68.1.15-1.12-.47-1.46-.62.16.13.31.27.48.38-1.37-.8-1.81-.02-3.16-1.01.24.03.81-.3.19-.83-.45.01-2.21.03-3.44-.94l-.08-.32-.92-.73c.85.31,2.87,1.06,3.85,1.42-.38-.48,0-.25-.68-.84-.13-.32.52.15.71.32-.49-.48-.97-.98-1.42-1.5-.18.31-1.34-.96-1.49-.73.59.52,1.21,1,1.83,1.45-.16.31-1.64-.26-2.6-1.5-.15-.39.65-.16.71-.26-.22-.07-1.1-.97-1.12-1.14l.55.39c-.44-.74-1.22-.81-1.62-1.83-.2-.3-.34-1.12-.52-1.04.05.7-.8,1.53-1.27,1.4-.06-.11-.85-1.77-.93-2.2-.1-.64,1.11.3,1.02-.25-.09.04-.37-.16-.48-.24-.15-.35.31-.02-.16-.68-.36.07-.85-1.4-.44-.17-.5-.62-.4-.74-.88-1.53-.05.37-1.05-.36-1.53-1.03.1,0,.11-.21.12-.31-.71-1.49-.97-2.34-1.55-3.75.02-.16-.18-.88.08-.65-.14-.18-.34-.32-.51-.75-.06-.96.43.96.5.18-.21.02-.69-1.03-1.04-1.61-.21.3.48,1.48.87,2.04-.4.17-1.23-.76-1.99-2.21-.52-1.18.08-.62-.05-.81-.71-2.3-1.35-1.73-1.65-3.74.04-.84.5-.18.64-.41.38.97.3,1.58.51,2.25l-.14-.87c.18.29.45.93.49,1.32.02-.7-1.16-3.88-1.36-5.74-.17-.29-.39-.83-.43-.54l.17.56c-.08.58-.55-1-.48-.26-.33-.73-.77-1.54-.87-2.66l.26-.27c-.08.04-.03.75.13,1.03-.24-.43.06-1.75-.43-2.17l-.06.81c-.31-.74-.8-1.69-.86-2.65-.21.5.07.19-.16.96.32-.67.44,2.52.72,1.46-.27.79.08,1.26-.07,2.26.09-.05.11-.37.25.45.04.03.09.11.13.16,0,.03,0,.03,0,.06v-.05s.03.03,0-.02c0-.2.01-.37.05-.45.32.35.61,1.64.85,2.04.07.49-.16-.17-.2.12l.34.6c-.21.12-.02,1.36-.45.27l.27,1.01c.04.63.23,1.47.48,1.94.1.49.61,1.12.31.76.2.51.43,1.02.65,1.52l-.05.03c.24.78.61,1.53.97,2.32.34.8.68,1.62.87,2.56.26.49.55.98.9,1.83l-.1.25c.35.62.78,2,1.12,2.17-.11.94,1.63,3.08,2.34,4.14l.23-.11c.51.72,1.06,1.36,1.78,2.08l.14-.19c.7.59,1.3,1.92,2.28,3.01-.13-.02-.36-.31-.48-.55.74,1.68,2.74,2.49,3.75,3.76.36.2.58.39.78.6-.03-.02-.06-.04-.09-.05.03.03.08.06.13.1.12.14.26.28.39.43-.11-.14-.22-.28-.32-.38.25.19.66.43,1.09.62l.04.31s.06.03.1.05c.35.32.38.09.26-.19.22.09.44.14.61.17.07.26.36.38.66.49.31.1.62.21.78.51.35-.02,2.26.65,2.6.27,0,.06.12.12-.11.06.47.19.96.34,1.43.3l.16.34c.39-.05.77-.15,1.15-.25.63.26.9.4.21.56,1.64-.17,1.32.02,2.68-.3l-.07.2c.49,0,1.26-.22,1.55-.09.54.15,1.88.18,3.42,0,.77-.05,1.59-.16,2.38-.26.8-.09,1.58-.17,2.27-.23-.64-.47,1.31,0,1.33-.46.19.1.58.1.17.31,1.34-.46,2.12-.28,2.96-.9.19.09-.24.28-.08.32.1-.06.4-.24.56-.2.16.04-.17.17-.37.29,1.38-.42,1.4-.87,1.39-1.28.75-.01,1.09-.16,1.5-.57.28.05.72.05-.11.37.48-.12,2.96-.78,2.89-1.12.17.02.66-.22.77-.3,1.06-.36,1.15-.39,2.16-.82l-.3.07c.26-.52.82-.41,1.61-.8v.05c1.96-.57.75-.45,2.7-1.01l-.2-.17c-.06-.56,1.74-.46,2.68-1.19l-.43.07c.48-.45,1.91-.17,2.5-.44.14-.03-.16.17-.32.3,1.62-.55.04-.38,1.1-1.05.29.04-.05.52.71.14.43-.1,1.85-1.7,2.95-2.08-.28.03-.56.06-.13-.34.71-.53,2.27-.92,2.7-1.71.11-.03.17-.03.19,0,.25-.23.69-.57,1.08-.91.39-.36.74-.71.83-.93.26.05.57-.08.94-.39.2-.18.41-.38.61-.6.2-.25.41-.53.6-.79.3-.55.5-1.05.53-1.46.04-.41-.02-.69.17-.76-.39-.85-1.29-1.2-2.25-1.37l.11-.06c-.47-.1-.89-.14-1.25-.13-.31,0-.51.03-.7.07-.37.07-.61.19-.85.31-.33-.02-.1-.11-.08-.16-1.04.05-1.6.17-2.09.34-.47.16-.87.37-1.6.75l-.22-.2c-.39.23-2.75.37-4.53.95.01-.03.04-.09.18-.15-1.01.33-2.27.45-3.36.49-1.09.05-2,.15-2.33.65-.45.13-.9.29-1.36.38,1.8-.13-.23.44.53.5-.71.12-1.86-.14-.99-.24l.14.04c.28-.49-2.25-.02-2.22-.34-3.53.18-6.96-.16-10.18-.73l.32.42-1.14-.18c-.28-.13-.35-.34.45-.21-.2-.13-.54-.14-.84-.1-.3.02-.56.08-.58.11-1.53-.49.69-.28.21-.4l-.65-.12.14.07c-.55.03-.64.18-1.59-.05-.59-.2-.26-.29-.49-.35,0-.02-.07-.06-.36-.11l-1.37-.44.47.44c-.65-.05-1.3-.4-.75.1-.83-.65-5-2.05-5.46-2.5-.92-.16-1.67-.65-2.63-1.19.21.18.19.55-.62.05.63-.37-1.32-1.19-1.68-2,.36.68-2.2-1.52-1.61-.52-.6-.52.11-.23-.27-.71-.83-.46-1.57-1.19-2.36-1.94-.74-.81-1.53-1.62-2.33-2.45-.09.03.08.41-.36.14-.17-.4-.35-.79-.51-1.19-.33-.32-.66.01-.96-.83.02.14.05.34-.17.13-1.29-1.89-2.73-3.71-3.99-5.69-1.25-1.97-2.35-4.08-2.9-6.36.1.64-.09.27-.28-.17.08.3-.2.08-.29.18-.15-.64-.3-1.28-.42-1.92-.45-.21-.72-1.94-1.08-2.03l.25.56c-.62-.66-.41,1.36-.89,1.41.72.72.31,2.57,1.53,3.73.05.35-.26-.2-.29.01.35.27.59.68.9,1.51l-.09-.07c1.18,2.17,1.5,3.2,2.91,5.62l.09-.3c.29.52.32.66.42.92.68.37-.93-1.4-.24-1.1,0,.47.62,1.33,1.19,2.17.6.82,1.2,1.61,1.15,2,.59.71.04-.38.63.33l.04.28.3.06c.37.48.42.83.34.93-.08-.12-.3-.3-.41-.41.36.73,1.53,1.61,1.67,1.85l-.54-.71c1.77,1.79,3.96,4,6.11,5.21l-.08-.2c1.6.94,1.11,1,2.88,2.02l-.08-.02c.4.13.88.38,1.37.65-.52-.14.72.69.06.49,1.88.77.95.36,2.32.58l.19.3c.48.04.55-.03,1.49.36-.82-.2.47.53-.46.33.88.66,1.68.81,2.31.98.64.15,1.12.29,1.49.72.55-.11.12-.28-.35-.49-.47-.2-1.01-.38-.74-.33-.36-.33.87-.05,1.49.18.64.2.9.96,2.56,1.43-.17-.04-.19-.01-.35-.06.59.3,1.27.11,1.99.49.5-.21,1,.24,1.2-.12l-1.55-.25c.9.08,1.78-.15,3.18.25-.12.06-.57.1-.87.12.4.18.83.04,1.25.22-.18.37-1.9-.15-2.89-.11.21.13.67.16,1,.19.34.02.55.04.28.22.77-.44,1.67.31,2.88.06l-.1.22c.19,0,.58-.07.91-.05-.21.08-.43.18-.64.25.96-.17,1.8.36,2.72.29-1.9-.13-.41-.32-1.19-.54,2.34-.18,1.3.78,3.93.66-.36.03-1.33-.14-.77-.25.5.05,1.15.14,1.46.27,1.74-.05-.27-.24.47-.39.59.29.85-.1,1.59-.26l.02.24c1.97.02.49-.54,2.26-.47l-.72.38.91-.15-.17.29c.99-.26,1.3-.26,2.28-.31-.25-.14.08-.45.93-.57.6.06-.3.27.92.08-.25.19-.53.41-1.09.26-.04.09-.25.19-.3.27.66.08,1.6-.17,2.04-.24-.17.01-.38.03-.49,0,.58-.18,1.15-.38,1.71-.62.29.04.09.15-.12.26.35-.1.58-.25,1.09-.37-.1.22-.03.41-.75.65l1.63-.54c.13.06.91.06.7.17.97-.04,2.18-.88,3.42-1.04.05-.05.17-.12.42-.21.57-.12,1.13-.19,1.7-.31.55-.12,1.03-.25,1.62-.48.25.08.48.17.71.27.92-.14-.96-.39.61-.6.14-.02.23-.02.3-.02.05,0,.08.01.1.02.04.03.05.07.04.12-.02.1-.08.22-.04.28.1-.08.32-.2.59-.2.13,0,.26.04.34.12.08.09.05.24-.08.37-.06-.12-.03-.25-.17-.32ZM87.47,162.41c.19-.17.54-.57.77-.54-.1.38-.36.39-.77.54ZM69.44,170.74c.16-.13.45-.17.8-.17-.22.09-.49.15-.8.17ZM27.74,145.38l.02.02c.07.58.05.38-.02-.02ZM27.52,144.2c-.06-.11-.1-.09-.11-.03.08.07.16.32.22.63.04-.1.04-.26-.11-.59ZM61,155.39c.07.04.13.08.2.12-.51-.06-.36-.09-.2-.12Z"/>
        <path class="cls-3" d="M71.51,169.78c.08.02.11.05.14.09.08-.07.07-.11-.14-.09Z"/>
        <path class="cls-3" d="M89.52,156.84h-.04s-.03.04-.03.06l.07-.06Z"/>
        <path class="cls-3" d="M36.62,160.17c.11.21.15.34.17.44.06-.02.03-.14-.17-.44Z"/>
        <path class="cls-3" d="M25.67,138.06l.21.75c-.08-.37-.06-.51-.06-.7-.05.03-.1.19-.15-.05Z"/>
        <path class="cls-3" d="M25.92,131.29c-.05-.1-.05-.23-.1-.33l-.1.05c.1.46.25.77.2.28Z"/>
        <path class="cls-3" d="M26.33,137.21c.19-.1.03-.56-.09-1.08l.02.09c-.3-.11-.12.45.07.99Z"/>
        <path class="cls-3" d="M26.21,136.01c-.03-.15-.07-.32-.09-.48-.13-.04.02.2.09.48Z"/>
        <path class="cls-3" d="M27,142.75c-.01-.26-.29-.09-.25-.25-.32-.21.72,1.58.25.25Z"/>
        <polygon class="cls-3" points="26.91 136.67 26.7 136.9 26.95 137.16 26.91 136.67"/>
        <path class="cls-3" d="M27.57,140.83l-.12-.85s-.08-.08-.13-.21c.1.52.19,1.09.25,1.05Z"/>
        <path class="cls-3" d="M27.32,139.78c-.05-.27-.11-.52-.18-.66.03.14.11.46.18.66Z"/>
        <polygon class="cls-3" points="27.19 137.8 27.19 138.06 27.29 138.65 27.19 137.8"/>
        <path class="cls-3" d="M30.09,149.65l.4.85c.11.06.07-.2-.08-.51-.14-.19-.28-.5-.31-.34Z"/>
        <path class="cls-3" d="M29.85,146.77c.02.25-.02.29-.06.45l.3-.07-.24-.38Z"/>
        <path class="cls-3" d="M30.77,149.3c.1.06.7,1.16.27.08-.11-.06-.48-.91-.27-.08Z"/>
        <polygon class="cls-3" points="36.76 161.81 36.62 161.62 36.23 161.95 36.76 161.81"/>
        <path class="cls-3" d="M45.9,169.53c-.79-.65-.39.16-1.06-.51-.27-.04.55.55.29.49.6.22.84.46.77.02Z"/>
        <path class="cls-3" d="M45.13,169.51c-.09-.04-.19-.08-.31-.12.17.08.25.11.31.12Z"/>
        <polygon class="cls-3" points="32.08 127.05 31.96 126.37 31.94 126.84 32.08 127.05"/>
        <path class="cls-3" d="M31.31,125.91l.26-.25-.39-.3c.05.12.16.41.12.54Z"/>
        <path class="cls-3" d="M85.47,162.8v.09c.13.02.27-.05.56-.2l-.56.1Z"/>
        <polygon class="cls-3" points="93.52 157.95 93.39 158.04 93.8 158.1 93.52 157.95"/>
        <path class="cls-3" d="M94.75,156.34c.09.01.06-.05.09-.04-.03.02,0-.06-.03-.1.01-.04-.1-.05-.07.14Z"/>
      </g>
    </g>
    <g>
      <path class="cls-2" d="M28.44,125.58s-1.48,44.97,50.35,45.35c1.35,0,2.7.21,3.95.69,2,.77,3.52,2.2-2.57,4.32-1.85.64-3.68,1.21-5.44,1.7-11.26,3.18-28.61,4.45-39.19-.56-7.08-3.35-8.94-9.13-10.99-14.16-4.82-11.83-2.41-28.52-2.41-28.52l.84-8.82-1.33-3.99c-.59-1.76.72-3.57,2.57-3.57h5.04c1.51,0,2.47,1.62,1.73,2.95l-2.56,4.61Z"/>
      <g>
        <path class="cls-3" d="M29.63,125.95c-.17.27.07.27.08.33.22-.48-.13-.34-.08-.33Z"/>
        <path class="cls-3" d="M31.76,121.11l.02.15c.11-.35.12-.72.08-1.06.02.3-.01.61-.11.91Z"/>
        <path class="cls-3" d="M28.34,117.28c.12.09.28.13.48.14.21.02.4-.01.75,0,.64.01,1.39.35,1.71.85.02.07.04.13.06.2.18.08.35.18.52.31-.33-.69-1.08-1.25-1.85-1.42-.38-.08-.79-.06-1-.06-.25,0-.47,0-.66-.03Z"/>
        <path class="cls-3" d="M25.75,116.5c.16.14-.56.12.61.04-.06-.02-.08-.02-.11-.04-.11,0-.25,0-.5,0Z"/>
        <path class="cls-3" d="M26.24,116.51c.51-.01-.34-.12,0,0h0Z"/>
        <path class="cls-3" d="M23.69,116.63l.86-.16c-.09-.04-.21-.07-.44-.08-.22-.01-.38-.02-.2-.06-1.11.22-.82.29-.22.3Z"/>
        <path class="cls-3" d="M22.84,117.11c.15-.07.31-.14.47-.2-.09-.02-.23.02-.47.2Z"/>
        <path class="cls-3" d="M24.33,116.69c-.27.03-.7.1-1.02.22.16.03.18.13.48-.12-.09.12.16-.02.54-.1Z"/>
        <path class="cls-3" d="M24.75,116.74c.38.08.87.13.19.25,1.29-.05,1.1-.3-.19-.25Z"/>
        <path class="cls-3" d="M28.09,117.64l.51.1.44-.12c-.22.06-.98-.1-.94.02Z"/>
        <path class="cls-3" d="M19.93,121.22c.07.05.17-.37.27-.45-.04-.25-.04-.5-.03-.76-.13.37-.17,1.14-.24,1.2Z"/>
        <path class="cls-3" d="M20.2,120.77c.04.37.15.73.29,1.05-.22-.92-.18-1.12-.29-1.05Z"/>
        <path class="cls-3" d="M22.84,117.54c.43-.3,1.02-.48,1.5-.57-.59.08-1.29.31-1.78.7.09-.05.18-.09.27-.14Z"/>
        <polygon class="cls-3" points="20.84 124.27 20.54 123.92 21.03 124.55 20.84 124.27"/>
        <path class="cls-3" d="M21.37,125.76c-.08-.01-.13.01-.18.03-.06.02-.11.02-.16.02,0,.01.02-.03.03.03,0,.12.02.24.03.35.03.23.07.44.1.64-.01-.21,0-.42.03-.65.02-.11.04-.24.07-.35.02-.02.05-.04.07-.06h0Z"/>
        <path class="cls-3" d="M21.29,127.5c-.01-.21-.06-.43-.1-.67.01.22.04.45.1.67Z"/>
        <path class="cls-3" d="M20.87,123.09c-.03.07-.1.21-.02.63l.11-.35c-.03-.09-.06-.18-.09-.28Z"/>
        <path class="cls-3" d="M20.96,123.36h0c.09.32.16.53.19.62-.02-.08-.08-.26-.19-.62Z"/>
        <path class="cls-3" d="M20.84,123.02s.01.04.02.07c.01-.03.01-.05-.02-.07Z"/>
        <path class="cls-3" d="M20.9,119.17c-.19.61-.17,1.74.19.71-.01-.42-.35.17-.19-.71Z"/>
        <path class="cls-3" d="M20.98,122.59l-.21-.79s-.07.25-.21-.02c.15.35.28.53.42.81Z"/>
        <polygon class="cls-3" points="21.17 122.93 20.98 122.59 21.06 122.87 21.17 122.93"/>
        <path class="cls-3" d="M21.62,126.17c.06.35.03.72,0,1.14.08-.45.15-.91.19-1.35-.06-.06-.16-.27-.2.21Z"/>
        <path class="cls-3" d="M21.5,125.05s.02.05.04.07c0-.05,0-.09-.04-.07Z"/>
        <polygon class="cls-3" points="21.23 131.45 21.28 131.38 21.24 131.36 21.23 131.45"/>
        <path class="cls-3" d="M21.87,125.89c.03-.08.03-.13.02-.18-.03-.05-.08-.09-.12-.11.02.04.04.08.06.12,0,.08,0,.08,0,.25.03.03.05.04.05-.07Z"/>
        <path class="cls-3" d="M21.28,128.66c.06-.17.12-.37.17-.57-.08.17-.22.51-.17.57Z"/>
        <path class="cls-3" d="M21.52,125.25l-.03-.05c0,.12,0,.1.03.05Z"/>
        <path class="cls-3" d="M21.52,125.25c.08.14.19.32.25.34-.05-.1-.16-.34-.23-.47,0,.04,0,.09-.02.13Z"/>
        <path class="cls-3" d="M22.48,132.85c-.19-.08-.29-1,0-1.74-.08-.77-.77-.35-1.19.27.08.03.16.04.21.83.13-.26.42-1.7.53-1.02,0,1.04-.15.84-.3,1.33.29-.4.23,1.35.61,1.17l-.04-.92c.06-.01.12.33.19.08Z"/>
        <path class="cls-3" d="M21.44,129.9v-.32c-.06.36-.17.61-.37,1.08.05.54.11.66.17.71l.18-1.57.02.11Z"/>
        <path class="cls-3" d="M21.58,128.14c.19.27.21,1.05.49.6.07-.94-.12-.68-.16-1.25-.09,1.52-.08-.45-.3.64,0-.3,0-.57.02-.82-.05.27-.11.53-.17.77,0-.01.01-.02.02-.03h0s0,0,0,0c.03-.06.05-.08.03-.01,0,0,0,.02,0,.03.03.01.05.04.07.08-.09.43-.06.06-.07-.08-.01,0-.02-.02-.03-.02h0s-.03,1.54-.03,1.54c.06-.32.09-.72.14-1.44Z"/>
        <path class="cls-3" d="M21.45,120.83s-.03.05-.05.05c.03.1.05.14.05-.05Z"/>
        <path class="cls-3" d="M21.42,121.5c-.06-.11-.18-.19-.2-.59.06-.35.1,0,.17-.03-.07-.21-.12-.84-.26-.08l.03.12c-.02.33.02.8.03,1.05,0,.27-.01.46-.04.41.13-.24.2-.41.26-.89Z"/>
        <path class="cls-3" d="M22.15,125.03l.15.36.12.25v.37c.07-.16.12-.25.18-.39v-.13s-.1.05-.1.05c-.06-.25-.14-.43-.2-.46-.06-.05-.11-.01-.16-.04Z"/>
        <polygon class="cls-3" points="21.11 131.58 20.9 131.38 21.15 132.15 21.11 131.58"/>
        <polygon class="cls-3" points="20.98 133.22 20.79 133.14 20.87 133.59 20.98 133.22"/>
        <path class="cls-3" d="M79.25,174.98l.33-.16c-.16.07-.26.12-.33.16Z"/>
        <path class="cls-3" d="M76.69,175.77l-.03.11c.1-.09.14-.14.03-.11Z"/>
        <path class="cls-3" d="M28.5,173.19c.24.56.48,1.25.59,1.05l.04-.28c-.3-.28-.5-.53-.63-.76Z"/>
        <path class="cls-3" d="M55.2,180.37c-.05-.02-.11-.04-.16-.06-.13.08-.25.15-.37.21.16-.05.34-.1.53-.15Z"/>
        <path class="cls-3" d="M55.57,179.46l.71.12c-.16-.04-.39-.08-.71-.12Z"/>
        <path class="cls-3" d="M76.36,172.26l-.45.21c.7.02.39-.1.45-.21Z"/>
        <path class="cls-3" d="M20.62,150.39c-.05.48-.06.87-.02,1.2.05-.59.22-1.07.02-1.2Z"/>
        <path class="cls-3" d="M78.96,177.49c.21-.11.29-.18.27-.22-.22.11-.33.19-.27.22Z"/>
        <path class="cls-3" d="M20.76,152.97c0-.09.01-.17.02-.26-.08-.34-.15-.69-.18-1.12-.04.43-.04.93.16,1.38Z"/>
        <path class="cls-3" d="M31.61,145.66l-.03-.12s-.01.05.03.12Z"/>
        <path class="cls-3" d="M29.64,130.01c.03.15.06.39.09.62,0-.11-.02-.3-.09-.62Z"/>
        <path class="cls-3" d="M20.3,139.93c0-.36-.02-.06,0,0h0Z"/>
        <path class="cls-3" d="M21.26,138.26c.02.08.05.14.09.15-.05-.03-.08-.08-.09-.15Z"/>
        <path class="cls-3" d="M22.66,156.25v.03c.03-.11.02-.09,0-.03Z"/>
        <path class="cls-3" d="M20.42,139.4c-.03.13-.07.28-.09.45.02-.07.05-.21.09-.45Z"/>
        <path class="cls-3" d="M20.32,139.47c.02-.12.03-.22.04-.31-.03-.05-.06,0-.04.31Z"/>
        <path class="cls-3" d="M20.28,140.43c0-.2.03-.39.05-.58-.02.07-.03.1-.04.08,0,.1,0,.25-.01.5Z"/>
        <path class="cls-3" d="M52,166s-.04-.03-.06-.05c-.37-.07-.22-.02.06.05Z"/>
        <path class="cls-3" d="M37.22,176.69s-.03,0-.04,0c.01,0,.03.02.04.03v-.02Z"/>
        <path class="cls-3" d="M38.4,176.98c-.59.11-.84-.07-1.18-.27l.14.74c.35-.14.69-.29,1.04-.47Z"/>
        <path class="cls-3" d="M82.58,173.04c-.03.1-.11.21-.24.27-.19-.14-.35-.15-.42-.15-.08,0-.11.04-.29.1.23-.07.37-.08.46-.04.08.05.05.14,0,.19-.05.06-.11.11-.14.18-.03.07-.17.24-.08.39-.14.02-.24.02-.45.05.15-.06.16-.1.24-.14-.99.07-.49.76-1.84,1.15-.5.1-.87.11-.56-.07l-1.02.49c-.32.09-.28-.05.04-.14l-1.62.56v-.02c-.2.17-.68.5-.92.65-.44.04.19-.13.06-.18l-.86.44c-.42-.05.29-.45.92-.62-1.04-.4-.7.44-2.64.53l.84-.31c-.65-.23-1.28.1-2.31.09.26.09,2.08.09,1.14.51-.29.03-.66.1-1.17.35-.06-.23-.57-.06-1.23.1l-.02-.32c-.69.25-.6.39-.99.62-.81.12-1.02-.09-1.24-.26-1.28.2.95.22-.55.57-1.09.04-1.82.32-3.08.68-.77-.01.11-.21-.18-.27l-.64.34c-.16.01-.12-.07-.1-.11-.55.17,0,.32-.89.52-.21.37-1.88-.32-2.95.16-.28-.07.12-.2.02-.32-1.49.36-1.28.28-2.51.7l-1.07-.18c.79.22-.2.53-1.08.79.28.11.52.2.69.25-.47.07-.94.15-1.41.2-.17-.05-.03-.16.2-.29-.09.03-.18.05-.26.08-.51-.12-.24-.3.12-.48l.51.19c.35-.2.66-.43.59-.61-.09.04-.26.08-.46.1.09-.06.15-.1.1-.14-.05-.03-.19.04-.42.13l-.32-.36-.08.14-1.82-.23c-1.3.31-2.47.84-4.57.78.54-.21.15-.42.21-.72.54.38,1.61.01,2.67.11-.56-.06-.43-.2-.28-.25-.64.08-1.28.14-1.92.17.06-.25-.39-.22-.87-.37.16.27-.2.32-.7.31-.5-.03-1.14-.12-1.54-.09-.02-.17.18-.32,1.11-.15-.98-.52-1.42.42-2.39-.07.23.04.35.09.45.01-.56.06-1.83-.32-1.5-.4l.23.04c-1.51-.27-4.49-1.12-4.84-.81,0-.06.35-.42.47-.48-.5.08-1.01.18-1.53.24l-1.56.12c.36-.24-.12-1.39,1.11-1.1-.31-.19-.7-.39-1.43-.6.18.17.33.73,0,.63-.64-.8-.49-.47-1.29-1.33.27.26-.36.54-.86.21.12-.02.26-.5.47-.44-.51-.07-.99-.22-1.5-.35.36.13.33-.35.18-.65.05.17-.94-.77-1.22-1.01.11.17.22.35.35.5-1.09-1.15-1.73-.53-2.75-1.86.22.09.86-.06.42-.74-.43-.11-2.13-.59-3.03-1.86v-.33s-.67-.96-.67-.96c.73.54,2.46,1.83,3.3,2.45-.23-.57.07-.24-.41-1-.03-.35.45.29.59.51-.34-.6-.65-1.21-.94-1.84-.26.24-1.01-1.3-1.22-1.12.43.66.88,1.3,1.34,1.9-.24.26-1.51-.71-2.07-2.17-.03-.41.67.03.76-.05-.19-.13-.78-1.24-.76-1.41l.42.53c-.22-.83-.95-1.12-1.04-2.21-.11-.34,0-1.17-.2-1.14-.15.69-1.2,1.24-1.61.99-.03-.12-.32-1.94-.28-2.38.09-.64.98.6,1.05.05-.09.01-.31-.25-.39-.37-.04-.37.3.06.04-.7-.36-.03-.42-1.58-.38-.28-.3-.74-.17-.82-.42-1.72-.15.35-.91-.64-1.18-1.42.1.03.17-.17.2-.27-.26-1.63-.27-2.52-.44-4.04.07-.15.08-.89.26-.6-.08-.21-.24-.4-.28-.87.21-.93.14,1.04.43.31-.21-.04-.37-1.18-.55-1.84-.28.23.05,1.56.25,2.21-.43.05-.97-1.08-1.29-2.68-.16-1.28.25-.57.18-.79-.04-2.4-.81-2.04-.53-4.05.28-.79.53-.03.73-.21.09,1.04-.16,1.6-.14,2.31l.11-.87c.1.33.17,1.02.1,1.4.22-.67-.02-4.05.31-5.89-.08-.33-.14-.9-.26-.64v.59c-.23.53-.24-1.12-.38-.38-.11-.79-.3-1.7-.09-2.8l.32-.18c-.09.02-.24.71-.17,1.03-.11-.48.55-1.66.2-2.2l-.28.76c-.09-.79-.29-1.85-.08-2.79-.34.42.01.2-.43.88.49-.56-.28,2.54.28,1.6-.48.68-.28,1.23-.7,2.15.1-.02.21-.32.11.51.03.04.06.13.08.19,0,.02,0,.03-.01.06v-.05s.03.04.02-.02c.06-.2.12-.35.18-.41.21.43.13,1.74.24,2.19-.07.49-.11-.21-.23.05l.16.67c-.23.06-.4,1.3-.51.13l-.03,1.05c-.14.62-.19,1.47-.08,1.99-.04.5.27,1.25.08.82.05.55.12,1.1.19,1.64l-.06.02c.01.81.16,1.65.28,2.5.1.86.2,1.75.11,2.7.11.54.25,1.09.35,2.01l-.16.21c.16.69.19,2.14.47,2.4-.37.87.7,3.42,1.08,4.63l.26-.04c.28.83.63,1.6,1.12,2.5l.18-.14c.5.76.71,2.21,1.34,3.53-.12-.05-.25-.4-.31-.66.24,1.82,1.93,3.16,2.54,4.67.29.29.45.54.58.79-.02-.03-.05-.05-.07-.07.03.03.06.08.1.13.08.17.17.34.26.52-.06-.17-.13-.33-.2-.45.19.25.52.6.87.9l-.05.31s.05.05.08.08c.25.4.34.19.3-.11.19.15.38.25.54.33,0,.27.24.46.49.66.27.19.54.38.6.7.35.08,1.98,1.26,2.42.99-.02.06.08.15-.13.02.4.32.83.6,1.29.69l.05.37c.39.06.78.07,1.17.09.53.43.76.64.05.6,1.62.3,1.26.39,2.66.47l-.12.17c.46.14,1.27.14,1.51.35.47.3,1.76.7,3.28.97.76.16,1.57.3,2.36.42.79.14,1.56.28,2.24.42-.48-.63,1.26.37,1.4-.07.15.15.53.26.07.34,1.41-.06,2.11.33,3.09-.03.16.14-.31.2-.16.28.11-.03.45-.12.6-.03.14.08-.21.11-.43.17,1.45-.01,1.59-.44,1.69-.84.72.2,1.09.16,1.6-.12.25.12.68.25-.21.32.5.02,3.06.09,3.09-.26.16.07.7-.02.83-.07,1.12-.05,1.22-.05,2.31-.18l-.31-.02c.39-.43.9-.16,1.77-.32l-.02.04c2.05,0,.85-.22,2.88-.2l-.14-.22c.1-.55,1.8.05,2.91-.39l-.44-.06c.58-.3,1.88.37,2.52.28.15.01-.2.12-.39.19,1.71-.07.15-.36,1.35-.7.26.11-.19.49.64.33.44.03,2.26-1.11,3.42-1.17-.28-.05-.55-.1-.03-.37.83-.31,2.44-.25,3.08-.88.12,0,.17.02.19.05.31-.15.82-.35,1.29-.57.48-.24.91-.47,1.06-.66.23.12.57.08,1.01-.11.24-.11.5-.25.75-.4.27-.18.55-.4.79-.59.44-.44.77-.87.92-1.25.16-.38.18-.67.37-.68-.13-.93-.9-1.52-1.78-1.95l.13-.03c-.43-.23-.82-.38-1.16-.48-.3-.08-.5-.12-.69-.13-.37-.03-.64,0-.9.06-.31-.11-.07-.14-.03-.17-1.01-.24-1.58-.28-2.11-.26-.5.02-.94.11-1.75.27l-.16-.25c-.44.11-2.74-.42-4.62-.36.02-.03.06-.07.21-.09-1.06.03-2.3-.2-3.36-.47-1.06-.26-1.96-.42-2.42-.03-.47,0-.94.02-1.41-.01,1.76.38-.34.35.37.62-.71-.08-1.75-.66-.89-.51l.12.07c.4-.39-2.15-.65-2.03-.95-3.43-.82-6.64-2.12-9.56-3.56l.19.49-1.04-.5c-.24-.2-.24-.42.5-.07-.15-.18-.48-.28-.78-.34-.29-.07-.56-.08-.58-.05-1.33-.9.74-.08.32-.32l-.59-.29.11.11c-.54-.13-.66-.01-1.51-.5-.51-.36-.17-.35-.37-.48.01-.02-.05-.07-.31-.21l-1.19-.81.33.56c-.61-.23-1.13-.75-.75-.12-.61-.86-4.22-3.38-4.54-3.94-.84-.41-1.42-1.09-2.19-1.88.15.24.03.58-.61-.13.71-.18-.93-1.52-1.05-2.4.15.75-1.68-2.08-1.4-.95-.43-.67.17-.19-.06-.76-.67-.67-1.18-1.58-1.72-2.52-.48-.98-1.01-1.99-1.55-3.01-.1,0-.04.42-.38.03-.05-.43-.11-.86-.15-1.29-.22-.4-.63-.17-.69-1.06-.02.14-.05.34-.2.07-.71-2.18-1.58-4.33-2.22-6.58-.65-2.25-1.1-4.58-1-6.92-.08.64-.17.23-.22-.24,0,.31-.22.02-.33.09.03-.66.07-1.31.13-1.96-.37-.33-.15-2.06-.46-2.25l.08.61c-.41-.81-.78,1.19-1.25,1.11.49.89-.43,2.55.42,4.01-.05.35-.19-.27-.28-.07.25.36.37.82.44,1.7l-.07-.09c.52,2.41.54,3.49,1.21,6.21l.17-.27c.13.58.12.72.15,1.01.54.54-.49-1.6.08-1.13-.14.45.22,1.45.53,2.42.35.96.7,1.88.54,2.24.36.85.14-.35.51.49l-.04.28.27.14c.22.56.17.92.07.99-.05-.14-.2-.37-.28-.51.14.81,1.02,1.98,1.09,2.25l-.32-.84c1.2,2.22,2.68,4.96,4.4,6.72l-.02-.21c1.27,1.36.79,1.27,2.19,2.75l-.07-.04c.35.23.74.62,1.13,1.01-.46-.28.5.87-.08.48,1.59,1.27.81.61,2.06,1.21l.1.34c.45.17.54.13,1.33.76-.73-.43.3.64-.53.19.66.88,1.39,1.25,1.94,1.59.57.32.99.6,1.23,1.11.56.05.2-.24-.2-.57-.4-.33-.87-.65-.62-.53-.26-.42.85.2,1.38.59.56.37.59,1.18,2.06,2.09-.15-.08-.18-.06-.32-.16.48.45,1.19.46,1.77,1.03.53-.06.89.51,1.18.22l-1.42-.67c.84.33,1.75.36,2.98,1.13-.14.03-.58-.06-.87-.13.34.28.78.27,1.13.56-.28.3-1.78-.68-2.74-.91.16.19.6.34.91.47.32.12.52.19.21.29.87-.2,1.52.77,2.75.87l-.16.19c.18.05.57.1.89.21-.23.02-.46.06-.69.06.97.1,1.62.86,2.53,1.04-1.78-.66-.3-.42-.99-.86,2.29.49,1.03,1.12,3.58,1.74-.35-.07-1.24-.51-.67-.46.46.19,1.07.46,1.33.67,1.68.44-.19-.31.56-.24.49.44.84.14,1.6.2l-.05.24c1.88.58.62-.38,2.3.19l-.8.17.92.11-.24.23c1.02.03,1.32.12,2.28.34-.2-.2.2-.41,1.05-.29.56.23-.36.18.86.33-.29.11-.63.25-1.12-.05-.07.07-.29.11-.36.18.61.26,1.59.28,2.03.35-.17-.04-.37-.08-.47-.13.6,0,1.21-.04,1.81-.11.27.12.04.17-.19.22.36,0,.62-.08,1.15-.05-.16.18-.14.39-.91.41l1.72-.06c.11.1.85.31.63.37.94.23,2.34-.23,3.58-.04.07-.04.2-.07.46-.09.59.04,1.14.13,1.72.18.56.04,1.06.05,1.69,0,.21.15.42.3.61.46.92.13-.81-.65.75-.41.14.02.23.05.3.07.04.02.07.03.09.05.04.04.02.08,0,.13-.05.09-.14.19-.11.26.12-.05.36-.1.62-.03.13.03.24.11.3.21.05.11-.02.25-.18.33-.02-.13.04-.25-.07-.35ZM72.9,176.99c.23-.11.68-.39.89-.3-.21.34-.46.27-.89.3ZM53.26,179.91c.19-.08.48-.04.81.06-.24.02-.51,0-.81-.06ZM20.38,143.84v.03c-.09.58-.05.37,0-.03ZM20.5,142.64c-.03-.12-.07-.11-.1-.06.06.09.06.36.04.66.06-.08.11-.24.06-.6ZM49.49,162.81c.05.06.11.11.16.17-.48-.2-.31-.19-.16-.17Z"/>
        <path class="cls-3" d="M55.52,179.57c.07.04.09.08.11.13.1-.04.1-.09-.11-.13Z"/>
        <path class="cls-3" d="M76.44,172.22h-.04s-.04.02-.04.04l.08-.04Z"/>
        <path class="cls-3" d="M24.74,160.53c.05.23.05.37.04.47.06,0,.07-.12-.04-.47Z"/>
        <path class="cls-3" d="M20.46,136.24v.78c.01-.37.08-.5.13-.69-.06.01-.15.15-.13-.09Z"/>
        <path class="cls-3" d="M22.6,129.81c-.02-.11.02-.24,0-.35l-.11.02c-.04.47.02.81.11.33Z"/>
        <path class="cls-3" d="M21.33,135.61c.21-.04.19-.52.22-1.07v.09c-.27-.2-.26.39-.22.97Z"/>
        <path class="cls-3" d="M21.56,134.42c.01-.16.02-.33.05-.49-.11-.08-.04.2-.05.49Z"/>
        <path class="cls-3" d="M20.41,141.11c.06-.25-.25-.17-.17-.31-.25-.3.25,1.72.17.31Z"/>
        <polygon class="cls-3" points="22.04 135.25 21.77 135.41 21.94 135.73 22.04 135.25"/>
        <path class="cls-3" d="M21.5,139.43l.12-.85s-.06-.1-.07-.23c-.05.52-.12,1.1-.05,1.08Z"/>
        <path class="cls-3" d="M21.55,138.35c.03-.27.04-.53.01-.69,0,.15-.02.47-.01.69Z"/>
        <polygon class="cls-3" points="21.99 136.41 21.92 136.66 21.84 137.26 21.99 136.41"/>
        <path class="cls-3" d="M21.44,148.6l.14.92c.09.09.13-.17.06-.51-.08-.22-.13-.56-.21-.41Z"/>
        <path class="cls-3" d="M22.02,145.77c-.05.25-.1.27-.18.41l.31.02-.13-.43Z"/>
        <path class="cls-3" d="M22.19,148.46c.08.09.35,1.32.23.16-.09-.09-.2-1.01-.23-.16Z"/>
        <polygon class="cls-3" points="24.42 162.14 24.34 161.92 23.87 162.13 24.42 162.14"/>
        <path class="cls-3" d="M31.02,172.12c-.57-.84-.42.04-.88-.78-.25-.12.37.68.14.55.51.39.67.67.73.24Z"/>
        <path class="cls-3" d="M30.29,171.89c-.08-.06-.16-.13-.26-.2.14.12.21.18.26.2Z"/>
        <polygon class="cls-3" points="29.71 127.47 29.79 126.78 29.63 127.23 29.71 127.47"/>
        <path class="cls-3" d="M29.29,126.16l.32-.16-.29-.39c.01.13.04.44-.03.56Z"/>
        <path class="cls-3" d="M70.88,176.8l-.03.09c.12.06.28.03.6-.03l-.57-.06Z"/>
        <polygon class="cls-3" points="79.97 174.41 79.82 174.46 80.19 174.63 79.97 174.41"/>
        <path class="cls-3" d="M81.6,173.21c.08.04.07-.03.1,0-.03.02,0-.06,0-.1.02-.04-.08-.07-.1.11Z"/>
      </g>
    </g>
  </g>
</svg>