<?xml version="1.0" encoding="UTF-8"?>
<svg id="swerve-bubble-icon" xmlns="http://www.w3.org/2000/svg" xmlns:xlink="http://www.w3.org/1999/xlink" version="1.1" viewBox="0 0 250 250">
  <defs>
    <style>
      .cls-1 {
        fill: #e84949;
      }

      .cls-1, .cls-2 {
        stroke-width: 0px;
      }

      .cls-3 {
        filter: url(#drop-shadow-4);
      }

      .cls-2 {
        fill: #f9f4e7;
      }

      #swerve-bubble-icon {
        transition: all 0.3s ease-in-out;
      }

      #swerve-bubble-icon:hover {
        transform: scale(1.2)
      }
    </style>
    <script>
    let svg = document.querySelector("#swerve-bubble-icon");

    function logID()
    {console.log(this.id);
    }
        
    svg.addEventListener("click", logID);

  </script>
    <filter id="drop-shadow-4" filterUnits="userSpaceOnUse">
      <feOffset dx="4" dy="4"/>
      <feGaussianBlur result="blur" stdDeviation="0"/>
      <feFlood flood-color="#77002e" flood-opacity=".45"/>
      <feComposite in2="blur" operator="in"/>
      <feComposite in="SourceGraphic"/>
    </filter>
  </defs>
  <g id="bubble-shape" class="cls-3">
    <g>
      <rect class="cls-1" x="26.89" y="68" width="199.12" height="58.48" rx="14.9" ry="14.9"/>
      <polygon class="cls-1" points="35.37 147.49 35.37 118.31 75.42 118.31 35.37 147.49"/>
    </g>
  </g>
  <path id="swerve-text" class="cls-2" d="M39.35,107.49c2.2,3.15,7.37,5.99,10.27,5.99,1.25,0,2.06-.51,2.06-1.75,0-5.16-12.53-3.98-12.53-15.82,0-10.47,5.45-13.5,13.48-13.56,3.94-.03,8.56.45,11.36.8v8.56c-2.24-3.18-6.78-5.06-9.75-5.06-1.65,0-2.81.61-2.81,1.85,0,6.53,14.31,3.41,14.31,18.02,0,7.74-4.9,11.91-11.7,11.91-4.46,0-7.22-.8-10.09-.8-1.43,0-2.89.19-4.6.8v-10.92ZM101.71,75.88c-4.39,4.78.13,15.05.38,24.12.05,1.83.08,3.15.06,4.24-.1,1.47-.24,2.9-.42,4.23l-4.21-25.34h-13.68c1.51,8.98,2.1,14.87.65,25.47l-3.09-25.47h-14.29c1.9,1.81,4.46,29.58,4.88,34.48h14.29c.24-3.06.56-6.4.89-9.84.48,4.55.81,8.34.93,9.84h14.29c.05-.59.1-1.19.16-1.79l6.23-22.54c1.74-5.31,2.74-7.3,4.74-9.7,2.3-2.43,4.1-3.48,6.58-4.88,3.71-1.78-9.43-12.57-18.4-2.82ZM141.22,117.36c.3-.48.81-1.15,1.01-3.85.26-3.47.42-6.59.42-12.83,0-6.88-.12-9.68-.42-13.43-.26-3.22-.89-3.6-1.17-4.11h14.37v4.2c1.05-2.29,2.97-5,7.39-5,4.82,0,8.36,6.6,8.3,12.04,0,0-3.52-1.91-7.58-.02-3.02,1.41-6.24.63-8.33-1.56-.67,0-2.42,1.51-1,7.36.87,3.57,1.25,7.29,1.23,10.41l-.04,7.04h-14.35c.04-.1.1-.16.16-.25ZM175.19,76.45c-4.39,4.78.13,15.05.38,24.12.13,4.59.11,6-.36,8.47l-3.86-13.24s-3.13-1.87-7.18-.05c-4.9,2.2-7.11.05-7.11.05-.19,2.56,3.58,9.55,6.77,22.32h11.73l6.7-24.26c1.74-5.31,2.74-7.3,4.74-9.7,2.3-2.43,4.1-3.48,6.58-4.88,3.71-1.78-9.43-12.57-18.4-2.82ZM112.05,104.79c-3.04-9.42-1.09-18.55,8.21-21.55s16.44,3.19,19.48,12.62c.59,1.82.94,4.01,1.17,5.75l-14.53,4.69c1.58,4.91,5.18,5.86,8.09,4.92,2.55-.82,3.37-2.46,3.87-5.56.91.51,2.41,1.26,3.16,1.59-.15,3.09-2.71,7.93-9.03,9.97-10.36,3.34-17.37-2.96-20.42-12.41ZM127.57,101.39l-.72-2.24c-3.15-9.76-3.94-12.34-5.26-11.92s-.43,2.98,2.71,12.74l.72,2.24,2.55-.82ZM185.55,104.47c-3.04-9.42-1.09-18.55,8.21-21.55s16.44,3.19,19.48,12.62c.59,1.82.94,4.01,1.17,5.75l-14.53,4.69c1.58,4.91,5.18,5.86,8.09,4.92,2.55-.82,3.37-2.46,3.87-5.56.91.51,2.41,1.26,3.16,1.59-.15,3.09-2.71,7.93-9.03,9.97-10.36,3.34-17.37-2.96-20.42-12.41ZM201.07,101.07l-.72-2.24c-3.15-9.76-3.94-12.34-5.26-11.92s-.43,2.98,2.71,12.74l.72,2.24,2.55-.82Z"/>
</svg>