<?xml version="1.0" encoding="UTF-8"?>
<svg id="chocolate_caramel" data-name="chocolate caramel" xmlns="http://www.w3.org/2000/svg" xmlns:xlink="http://www.w3.org/1999/xlink" version="1.1" viewBox="0 0 250 250">
  <defs>
    <style>
      .cls-1 {
        fill: #f1b94a;
      }

      .cls-1, .cls-2, .cls-3, .cls-4 {
        stroke-width: 0px;
      }

      .cls-2 {
        fill: #77002e;
      }

      .cls-5 {
        filter: url(#drop-shadow-3);
      }

      .cls-6 {
        fill: #f9f4e7;
        font-family: Glodok-Display, Glodok;
        font-size: 23.86px;
      }

      .cls-3 {
        fill: #75320c;
      }

      .cls-7 {
        opacity: .45;
      }

      .cls-4 {
        fill: #9e4213;
      }
    </style>
    <filter id="drop-shadow-3" filterUnits="userSpaceOnUse">
      <feOffset dx="4.69" dy="4.69"/>
      <feGaussianBlur result="blur" stdDeviation="0"/>
      <feFlood flood-color="#77002e" flood-opacity=".45"/>
      <feComposite in2="blur" operator="in"/>
      <feComposite in="SourceGraphic"/>
    </filter>
  </defs>
  <g id="banana_shape" data-name="banana shape">
    <g class="cls-7">
      <path class="cls-2" d="M220.91,152.79H68.23c-2.52,0-4.56-2.04-4.56-4.56,0-15.68,0-31.35,0-47.03,0-2.52,2.04-4.56,4.56-4.56,50.89,0,101.79,0,152.68,0,2.52,0,4.56,2.04,4.56,4.56v47.03c0,2.52-2.04,4.56-4.56,4.56Z"/>
    </g>
    <path class="cls-3" d="M217.51,149.75H64.83c-2.52,0-4.56-2.04-4.56-4.56,0-15.68,0-31.35,0-47.03,0-2.52,2.04-4.56,4.56-4.56,50.89,0,101.79,0,152.68,0,2.52,0,4.56,2.04,4.56,4.56v47.03c0,2.52-2.04,4.56-4.56,4.56Z"/>
  </g>
  <text id="banana_text" data-name="banana text" class="cls-6" transform="translate(68.58 118.74)"><tspan x="0" y="0">Chocolate</tspan><tspan x="0" y="22.37" xml:space="preserve">   Caramel</tspan></text>
  <g id="chocolate_icon" data-name="chocolate icon" class="cls-5">
    <path class="cls-4" d="M18.07,128.19l-.84,18.2c-.15,3.35,2.16,6.37,5.61,7.33,11.28,3.14,36.39,8.87,53.42,3.31,3.01-.98,5.09-3.55,5.23-6.53l.8-17.33c.07-1.5-.36-2.97-1.22-4.24-3.5-5.17-13.9-17.82-30.12-15-19.56,3.41-19.23-5.42-31.42,10.32-.89,1.15-1.4,2.51-1.46,3.93Z"/>
    <g>
      <path class="cls-1" d="M46.53,115.8s.08.19.09.23c0-.06-.11-.28-.09-.23Z"/>
      <polygon class="cls-1" points="46.68 115.18 46.7 115.27 46.69 115.04 46.68 115.18"/>
      <path class="cls-1" d="M47.04,115.09c-.12-.37-.12.1-.22-.02l-.04-.08.06.31c.06-.07.11-.29.2-.2Z"/>
      <path class="cls-1" d="M47.39,115.87c-.04-.15.01-.13-.05-.04,0,.02,0,.02.01.04,0,0,.01,0,.03,0Z"/>
      <path class="cls-1" d="M47.36,115.87s.04.12,0,0h0Z"/>
      <path class="cls-1" d="M47.49,115.76l-.02.14c.02.09.06.1.06.17.03-.08.01-.17-.03-.31Z"/>
      <path class="cls-1" d="M47.5,115.47l-.02.06s.02.05.02-.06Z"/>
      <path class="cls-1" d="M47.45,115.66l.03-.13c-.01-.06-.03-.18-.02.05-.01-.11,0,0-.02.08Z"/>
      <path class="cls-1" d="M47.41,115.61c-.04-.08-.08-.13-.06-.27-.09.07-.02.33.06.27Z"/>
      <path class="cls-1" d="M46.98,114.69l-.07-.1v.14c0-.07.1.08.07-.03Z"/>
      <path class="cls-1" d="M47.79,115.93c0-.08-.03-.22-.04-.32l-.03.1c.02.06.06.11.07.23Z"/>
      <path class="cls-1" d="M47.75,115.61l.04-.14s-.05.05-.04.14Z"/>
      <polygon class="cls-1" points="47.45 115.05 47.4 115.35 47.47 115.04 47.45 115.05"/>
      <polygon class="cls-1" points="47.98 115.93 47.95 116.12 48 115.83 47.98 115.93"/>
      <path class="cls-1" d="M48.1,115.9c-.02.16.03.27,0,.36.03-.03.06-.16.09-.28-.03.07-.06.05-.1-.08Z"/>
      <path class="cls-1" d="M48.25,115.8s-.03.1-.05.18c.02-.04.03-.09.05-.18Z"/>
      <path class="cls-1" d="M47.89,115.5s.02.18.05.23l-.03-.23h-.02Z"/>
      <path class="cls-1" d="M47.91,115.49h0s.04.02.05.02c0,0-.02,0-.05-.02Z"/>
      <path class="cls-1" d="M47.88,115.5h0s0-.03,0,0Z"/>
      <path class="cls-1" d="M47.63,115.24c.02-.13.09-.28,0-.47-.01.16.04.27,0,.47Z"/>
      <path class="cls-1" d="M47.84,115.21l-.06-.05c0,.06.02.15,0,.21l.06-.17Z"/>
      <polygon class="cls-1" points="47.87 115.13 47.84 115.21 47.86 115.23 47.87 115.13"/>
      <path class="cls-1" d="M48.16,115.58c.03-.1.06-.11.09-.12-.03-.05-.07-.07-.1-.07,0,.07-.02.2.01.2Z"/>
      <path class="cls-1" d="M48.04,115.52h0s0-.04,0,0Z"/>
      <polygon class="cls-1" points="48.56 115.48 48.56 115.44 48.55 115.48 48.56 115.48"/>
      <path class="cls-1" d="M48.14,115.34s-.04.01-.06.08c.02-.02.04-.04.06-.04,0-.03,0-.05,0-.04Z"/>
      <path class="cls-1" d="M48.34,115.7s-.02-.09-.04-.13c0,.07.03.19.04.13Z"/>
      <path class="cls-1" d="M48.05,115.57h0c0,.06,0,.04,0,0Z"/>
      <path class="cls-1" d="M48.05,115.57s.02-.09.03-.14c-.02.02-.03.04-.04.08,0,.02,0,.04,0,.06Z"/>
      <path class="cls-1" d="M48.82,114.01c-.03.21-.13.4-.18.17-.09.15-.09.86-.08,1.26.01-.09.02-.18.09-.3,0-.12-.12-.29-.04-.47.1-.1.07.08.1.2,0-.27.16-.37.19-.77l-.1.13c0-.06.05-.15.03-.21Z"/>
      <path class="cls-1" d="M48.45,115.41l-.03.03s.04.13.06.3c.05-.1.06-.18.07-.25l-.12-.04v-.03Z"/>
      <path class="cls-1" d="M48.31,115.43c.03-.23.1-.33.07-.58-.08.01-.06.19-.11.29.12-.05-.04.13.04.27-.02.04-.05.05-.06.06.02.03.04.07.05.11h0s0-.01,0-.01h0s0-.05,0-.03h0s0-.06,0-.09c.03.05,0,.06,0,.09v.04s0,0,0,0l.12-.12s-.05-.03-.11,0Z"/>
      <path class="cls-1" d="M47.66,114.26s0,.04,0,.05c0-.03,0-.05,0-.05Z"/>
      <path class="cls-1" d="M47.72,114.4s-.01.13-.04.1c-.03-.07,0-.11-.01-.19-.02.06-.06.17.01.28v-.03c.07.08.15.36.14.4-.03-.21-.05-.36-.09-.56Z"/>
      <path class="cls-1" d="M48.05,114.85l.11-.11-.05-.2v.12c-.06-.05-.05.1-.05.19Z"/>
      <polygon class="cls-1" points="48.56 115.6 48.52 115.84 48.61 115.5 48.56 115.6"/>
      <polygon class="cls-1" points="48.68 115.58 48.65 115.79 48.7 115.67 48.68 115.58"/>
      <path class="cls-1" d="M54.1,119.53v.07s0-.05,0-.07Z"/>
      <path class="cls-1" d="M54.44,119.31l-.09-.07s.07.08.09.07Z"/>
      <path class="cls-1" d="M51.75,116.59c-.08.18-.25.45-.12.24l.13-.2s-.03,0,0-.04Z"/>
      <path class="cls-1" d="M54.49,116.95l.07-.02c-.07,0-.16,0-.28,0,.07,0,.16.01.21.03Z"/>
      <path class="cls-1" d="M55.47,116.91l-.15.1c.05-.02.1-.05.15-.1Z"/>
      <path class="cls-1" d="M52.67,120.68l.09.23c.05-.03-.03-.12-.09-.23Z"/>
      <path class="cls-1" d="M50,115.79c0,.1.02.15.05.17,0-.14.03-.35-.05-.17Z"/>
      <path class="cls-1" d="M52.12,117.81s.06.07.11.1c-.02-.03-.06-.06-.11-.1Z"/>
      <path class="cls-1" d="M50.15,115.99s0-.04,0-.06c-.04.03-.08.05-.1.02,0,.11.02.18.1.03Z"/>
      <path class="cls-1" d="M46.26,120.84s0-.02,0-.04c-.03.02-.02.03,0,.04Z"/>
      <path class="cls-1" d="M47.79,119.28s.02.02.02.03c0-.01,0,0-.02-.03Z"/>
      <path class="cls-1" d="M49.16,115.76s0,.02,0,0h0Z"/>
      <path class="cls-1" d="M49.21,114.82s.02-.06.03-.11c-.01.05-.02.09-.03.11Z"/>
      <path class="cls-1" d="M50.94,114.72h0s0-.04,0,0Z"/>
      <path class="cls-1" d="M49.15,115.65s.01.06.02.07c0-.02,0-.04-.02-.07Z"/>
      <path class="cls-1" d="M49.13,115.76s-.01-.02-.02-.03c-.01.04-.01.06.02.03Z"/>
      <path class="cls-1" d="M49.2,115.76s-.03-.01-.04-.03c0,.02,0,.03,0,.04,0,0,.02,0,.04,0Z"/>
      <path class="cls-1" d="M50.02,121.09s0-.01-.01-.02c0,.1,0,.08.01.02Z"/>
      <polygon class="cls-1" points="54.13 115.08 54.12 115.08 54.12 115.09 54.13 115.08"/>
      <path class="cls-1" d="M54.43,115.06c-.32.14-.32.1-.32.03l-.54.47c.28-.17.56-.34.85-.5Z"/>
      <path class="cls-1" d="M53.3,120.09l.24.1c.05.37-.15.35.15.52-.4-.62.49-.38.01-.95l.19.07s0,.04-.03.05c.41.16-.27-.46-.03-.49.1,0,.23.04.26.13,0-.07,0-.14-.01-.21.05-.02.15.07.1.09l.15-.18h.02c-.07-.08-.18-.23-.22-.29.14.03.05.06.14.1l-.07-.17c.22.07.31.24.21.28.78.33-.08-.16.52-.12v.14c.46.15.39,0,.75,0-.16-.02-.85-.09-.93-.28.08,0,.15-.03.05-.14.26.11.25.03.29-.04l.34.14c-.03-.12-.22-.18-.34-.28.1-.07.39,0,.63.05.15-.13-.51-.04-.46-.23.22-.08.12-.21-.02-.39.16-.06.21.06.33.05l-.25-.13s.1,0,.14.01c-.08-.08-.35-.07-.4-.17-.37-.06.65-.14.23-.32.11-.03.21.03.35.02-.26-.2-.18-.18-.56-.32l.22-.13c-.23.1-.5.02-.74-.04l-.09-.02s-.13.03-.19.04c-.09.02-.16.04-.2.05l-.08-.03-.21-.06c.08-.02.26-.03.47-.03-.04,0-.09,0-.13,0,.21-.07.41-.07.61-.06-.06.02-.13.05-.2.07.11,0,.22.01.33.02.11,0,.23,0,.33,0-.02,0-.03,0-.05-.01-.02,0-.04-.02-.05-.03.06,0,.11,0,.14,0,.04,0-.04-.02-.14-.04l.38-.08h-.15c.07-.07.13-.16.18-.25-.44-.1-1.07-.07-1.37-.16.32-.05.47-.13.81-.23-.32.15.26.11.24.25,0-.07.18-.09.24-.09-.14-.05-.29-.09-.44-.12.28-.08.18-.1.26-.19-.52.21-.46-.02-.69-.01.18-.07.38-.13.41-.03.33-.26-.74.13-.48-.09.02.02,0,.04.11,0-.2.03-.19-.13-.01-.18l.02.02c-.07-.16-.45-.37-.89-.09.05-.04.52-.33.62-.38-.57.24-1.11.53-1.61.86.37-.26,1.04-.96,1.38-1.03,0-.06,0-.15-.2-.1-.01.06-.39.44-.46.45.25-.37.12-.2.27-.55-.02.09-.53.52-.57.48.08-.06.43-.47.51-.5-.21.12-.41.25-.59.38.11-.07.36-.4.43-.56-.06.11-.16-.09-.25-.07v.15c-.17-.18-.69.62-.81.52.07-.1.44-.65.37-.77-.21.24-.83,1.27-1.05,1.43l.05-.17-.18.14c.25-.4.84-1.22,1.11-1.52,0-.15.08-.2-.01-.22.04-.17.16-.21.18-.2l-.15-.19c-.15.33-.31.26-.43.54l.37-.24c-.15.33-.56.88-.67.76.03-.15.3-.58.34-.69-.07.11-.23.16-.21.07l.14-.15c-.02-.16-.33.38-.28.02-.02-.04.09-.47,0-.28-.11.41-.62,1.59-.77,1.86,0-.03,0-.43.04-.64.07-.32.38-.68.44-.96-.04.09-.12.19-.15.22,0-.09.13-.28.04-.27-.15.34-.14-.09-.15.27-.11.07-.05-.1-.14-.12-.06.23-.37.73-.48.8.04-.09.07-.21.08-.26-.13-.08-.15-.27-.29-.32.02-.09-.02-.21.06-.36-.04.06-.1.17-.15.16.01-.33.11-.01.17-.4-.07.2-.21.24-.31.35-.08.32.12.1.23,0-.15.43-.4.85-.6,1.01-.14.08.04-.3,0-.24-.19-.14-.39.72-.46.36,0-.3.14-.56.18-.77.12-.08.1.21.16.22l-.04-.15c.05-.09.14-.14.15-.05.01-.27-.35-.15-.47-.42-.05.09-.12.18-.12.3l.06-.03c0,.24-.16.3-.12.42-.1.15-.22.39-.29.24l.04-.33c-.01.1.03.2.07.11-.06.14-.07-.47-.19-.05l.03.24c-.09.15-.22.49-.28.38,0,.33.02-.03.02.35.02-.48.18.05.19-.46-.02.45.07.2.07.59.02-.11.01-.21.07-.15.01-.03.02-.07.03-.09h0s0,0,0,0c0-.02,0-.02,0,0,0-.05,0-.11,0-.17.08-.24.18-.21.25-.33.03.06-.04.12-.05.24l.1-.18c-.05.24,0,.42-.11.54l.07.03c.01.14.06.21.13.12.02.06.17-.23.08-.06l.17-.11-.02.06c.11.06.38-.3.39.16.06-.04.13-.1.18,0l-.06.2c.08-.05.08.26.19.06-.15.55.21.22.27.35l.11-.25c.06.04.15,0,.28-.07l.09-.22c.15-.15.12.24.24.27-.05.08-.07.05-.06-.01-.1.56.47-.22.39.19.05-.07.05-.04.03.02,0,0,0,0,0,0h0s-.03.09-.05.13c.03-.05.04-.1.05-.12.01,0,.04-.02.09-.06l-.14.22h0c-.04.08.08-.1.18-.27.03-.03.07-.07.12-.12-.24.35.14-.09-.12.28.15-.17.19-.09.55-.43-.04.05-.06.07-.07.07-.01.05-.03.1.1.02l-.25.24c.14-.1.28-.19.42-.29-.13.16-.23.24-.48.41.41-.23.18-.08.62-.29l-.21.14s.36-.15.2-.03c-.38.27.23.2-.16.47.81-.27-.33.15.32-.03-.2.06-.3.1-.49.13.24,0-.29.12.31.05-.22.03-.31.05-.44.07.05,0,.19-.02.07,0-.13.02-.18.02-.28.03.05.02.72-.05,1.35-.12-.23.07-.25.08-.02.09.05,0,.12,0,.2,0-.21.03-.42.07-.5.02-.02.04-.3.16.2.17-.13,0-.05.04.01.05-.05.06-.09.07-.08.13h.09c.58.08.11.06.15.12h-.06c-.49.02.16.08-.38.08l.35.08c.72.19-.51-.02-.29.1l.2.04c.19.12-1.01-.24-1.09-.27-.06-.02-.08-.04-.12-.06-.42-.12.39.16.44.23-.21-.08-.52-.23-.57-.23-.15-.08.56.36.16.19.14.08.3.15.37.23,0,.06-.58-.28-.22.03-.04-.02-.07-.05-.1-.07.07.09.06.18.22.37-.35-.31-.3-.22-.27-.09.03.12.05.25-.19-.09-.03.03-.03.05-.08.1l-.04-.08c-.13.02-.07.21,0,.4-.05-.03-.08-.11-.1-.15-.24-.05-.24-.01-.16.42l-.15-.22c.05.15-.44-.23-.43.13-.01-.03-.04-.07-.05-.11,0,.37-.75-.42-.33.46v.27c.19-.01.19.39.33.49-.03.08-.29-.18-.24-.26l.03.04c-.22-.46-.26-.07-.42-.38-.26.16-.64.02-.86.07l.15.37h-.09c-.05-.07-.12-.28-.06-.28-.1-.2-.04.21-.02.29-.16-.12-.09-.46-.12-.46l-.03.04.02.04c0,.17.05.34-.03.33-.06-.07-.08-.23-.1-.24,0-.03-.01-.04-.03,0h-.1s.1.29.1.29c-.02.16-.1,0,.01.34-.17-.52-.41-.15-.45-.33-.06.23-.13.22-.2.18,0,.07-.02.42-.09.37.14-.71-.07-.34.02-.85-.05.35-.16.04-.26.52-.03-.07.08-.26.11-.43-.2.23-.07-.24-.14-.18-.07.07-.15.19-.26.28.09-.13.2-.25.31-.36-.03.03-.42.35-.18.13-.06.05-.15.13-.18.14.07-.1.1-.13.1-.13,0,0,0,0-.02,0h0s-.23.03-.23.03h0s0,0,0,0h.01s.02,0,.02,0h.05c.15.01.15.08.03-.05.03.03,0,.01-.01-.01,0,0,.03.04-.03-.03.03.04-.03-.05-.04-.07-.01-.03-.02-.08-.02-.07h0c0,.1,0-.25-.07-.45-.06-.23-.21-.46-.27-.71-.02.25-.16.12-.36.07-.19-.06-.43-.02-.28.31-.12-.03-.09-.15-.2-.21.11.21.1.29-.07.37l-.04-.05c-.1.21-.19.33-.3.5-.1.16-.24.36-.26.72l.25-.08c-.02.12-.09.16-.14.23.4.04-.04-.33.41-.27-.25.1-.22.31-.16.48.06.18.13.32-.09.53.1.14.22-.2.31-.07l-.1.13.19-.1c.03.1-.08.27-.18.36,0-.03-.08-.03-.11-.05-.04.25.33.25.32.32l-.05-.18c.39.18.73.6,1.17.4l.02-.12c.29-.14.14.19.42.14v.03c.06-.11.13-.15.2-.13-.09.13.09.29-.02.43.29-.21.16-.17.34-.61l.03.2c.06-.18.06-.28.17-.33-.09.17.08.31-.02.53.3.43.34-.47.53.15.03-.57-.25-.27-.21-.4-.07-.17.04-.42.11-.38.07,0,.24.69.44.63-.02,0-.01.04-.03.05.11.12.1-.22.24-.02-.04-.34.12-.01,0-.43l-.14.14c.07-.14,0-.64.21-.45.02.09.01.21,0,.28.08.11.06-.11.14,0,.13.41-.16.16-.18.5.11.16.11-.36.2.1-.11-.59.21,0,.18-.46l.08.24s0-.17.04-.18l.06.34c0-.3.29.16.32-.03-.2.09-.16-.27-.32-.41.09-.41.4.56.62.33-.02.05-.2-.08-.19-.21.07.03.18.08.27.19.15-.13-.14-.23-.14-.4.19.25.03-.15.05-.28l.12.23c.26.06-.2-.51.05-.41l.1.36.04-.13.12.27c-.01-.24.04-.21.17-.18-.11-.15-.22-.42-.15-.47.13.11.09.23.18.14.06.16.13.35-.03.17.03.08.06.15.09.23.14.12.16-.04.2-.07-.02,0-.04,0-.07-.03l-.03-.4c.07.07.09.15.12.23.02-.04-.02-.16,0-.2.1.19.21.38.2.5l.02-.29c.06.07.2.18.22.25.14.06-.03-.46.15-.38-.02-.04-.03-.08-.02-.12.12-.01.33.16.29-.16l.26.29c.04-.13-.33-.36-.26-.57.04-.17.2.26.29.33-.06-.19-.11-.61.21-.44,0,.09-.08.07-.11.12ZM54.76,118.89s.14.18-.03.12c-.26-.18-.1-.12.03-.12ZM54.94,116.7c.09,0,.06.04-.03.09-.03-.02-.03-.05.03-.09ZM49.5,115.62s0,0,0-.01c.02.11.01.07,0,.01ZM49.44,115.49s-.03.07-.03.11c.02-.06.04-.06.06-.04,0-.07,0-.12-.03-.07ZM49.23,119.48l.03.06c-.02.08-.02.01-.03-.06Z"/>
      <path class="cls-1" d="M55.36,116.91s-.09.02-.14.02c.05,0,.1,0,.14-.02Z"/>
      <polygon class="cls-1" points="52.65 120.64 52.64 120.64 52.67 120.68 52.65 120.64"/>
      <path class="cls-1" d="M51.75,113.93s0,.09,0,.14c.03-.06.04-.11,0-.14Z"/>
      <path class="cls-1" d="M48.88,115.83l.07-.06s-.03-.05-.04-.09c0,.06-.01.15-.03.15Z"/>
      <path class="cls-1" d="M48.52,114.16s-.02,0-.03.03v.12s.08-.1.03-.16Z"/>
      <path class="cls-1" d="M48.95,114.96c.03-.22-.02-.15-.08-.12h0c-.05.3,0,.21.07.12Z"/>
      <path class="cls-1" d="M48.87,114.85s-.03.01-.04,0c-.02.12.01.03.04,0Z"/>
      <path class="cls-1" d="M49.29,115.61c0-.06-.07.27-.06.18-.08.27.2-.3.06-.18Z"/>
      <polygon class="cls-1" points="49.02 114.24 49 114.51 49.06 114.3 49.02 114.24"/>
      <path class="cls-1" d="M49.37,114.5l-.06-.09s-.02.07-.04.09c.05.02.09.08.1,0Z"/>
      <path class="cls-1" d="M49.27,114.5s-.05,0-.07.03c.01,0,.04,0,.07-.03Z"/>
      <polygon class="cls-1" points="49.14 114.18 49.16 114.24 49.21 114.27 49.14 114.18"/>
      <path class="cls-1" d="M50.17,114.76l.1-.05c.04-.09.03-.15-.01-.12-.04.06-.08.08-.09.17Z"/>
      <path class="cls-1" d="M50.12,113.97c0,.06,0,.12-.02.21l.09-.32-.08.11Z"/>
      <path class="cls-1" d="M50.4,113.97c.04-.09.21-.22.09-.23-.04.09-.15.13-.09.23Z"/>
      <polygon class="cls-1" points="51.52 114.84 51.5 114.83 51.28 115.34 51.52 114.84"/>
      <path class="cls-1" d="M53.31,114.21c-.09-.19-.22.27-.27.06-.1.1.04.17-.05.25.16-.08.16.01.32-.31Z"/>
      <path class="cls-1" d="M52.99,114.53s-.05.03-.08.05c.04-.02.07-.04.08-.05Z"/>
      <polygon class="cls-1" points="47.74 119.16 47.73 119.14 47.74 119.15 47.74 119.16"/>
      <path class="cls-1" d="M47.73,119.14h0s0,0,0,0c0,0,0,0,0,0Z"/>
      <path class="cls-1" d="M55.65,119l-.08-.04c-.1-.03-.12,0-.17.02l.25.02Z"/>
      <polygon class="cls-1" points="54.26 119.84 54.29 119.83 54 119.63 54.26 119.84"/>
      <path class="cls-1" d="M53.39,120.83s.03-.08.06-.09c-.03.08-.27-.25-.06.09Z"/>
    </g>
    <g>
      <path class="cls-1" d="M64.45,119.16s-.19-.09-.22-.11c.02.09.28.13.22.11Z"/>
      <polygon class="cls-1" points="64.59 120.17 64.52 120.12 64.66 120.34 64.59 120.17"/>
      <path class="cls-1" d="M64.15,120.93c.37.14.12-.31.31-.37l.09.02-.24-.21c-.04.19,0,.5-.16.56Z"/>
      <path class="cls-1" d="M63.21,120.81c.13.07.05.15.09-.05-.02,0-.03,0-.04,0,0,.02-.02.03-.05.06Z"/>
      <path class="cls-1" d="M63.26,120.75c.04-.07-.13-.03,0,0h0Z"/>
      <path class="cls-1" d="M63.09,121.11l-.03-.17c-.08-.04-.16.02-.19-.05-.01.13.07.17.22.22Z"/>
      <path class="cls-1" d="M63.24,121.38v-.08s-.06-.01,0,.08Z"/>
      <path class="cls-1" d="M63.22,121.12v.17c.07.03.17.11.02-.07.08.08.01,0-.02-.1Z"/>
      <path class="cls-1" d="M63.31,121.1c.11,0,.2-.03.23.14.1-.21-.14-.35-.23-.14Z"/>
      <path class="cls-1" d="M64.46,121.19l.15-.02-.06-.14c.03.07-.19.1-.08.16Z"/>
      <path class="cls-1" d="M62.47,121.49c.05.06.18.13.26.2v-.13c-.08,0-.17.01-.26-.07Z"/>
      <path class="cls-1" d="M62.74,121.69v.19c.1-.07.07-.13,0-.19Z"/>
      <path class="cls-1" d="M63.55,121.67l-.09-.36c.02.13.05.26.06.4l.03-.03Z"/>
      <polygon class="cls-1" points="62.12 121.81 62.04 121.62 62.14 121.92 62.12 121.81"/>
      <path class="cls-1" d="M61.9,122.05c-.06-.15-.23-.16-.25-.27-.05.07-.02.23,0,.36.01-.1.08-.13.24-.09Z"/>
      <path class="cls-1" d="M61.68,122.35c0-.05,0-.13-.02-.21,0,.05,0,.12.02.21Z"/>
      <path class="cls-1" d="M62.55,122.01s-.15-.11-.24-.1l.2.14.04-.03Z"/>
      <path class="cls-1" d="M62.52,122.04h0s-.08.05-.09.06c.01,0,.04-.03.1-.06Z"/>
      <path class="cls-1" d="M62.56,122h0s.03.02,0,0Z"/>
      <path class="cls-1" d="M63.16,121.8c.04.15.02.37.28.38-.08-.15-.22-.16-.28-.38Z"/>
      <path class="cls-1" d="M62.81,122.16l.14-.06s-.13-.09-.14-.16v.22Z"/>
      <polygon class="cls-1" points="62.81 122.27 62.81 122.16 62.76 122.19 62.81 122.27"/>
      <path class="cls-1" d="M62,122.37c.02.12-.03.17-.08.23.09-.02.17-.05.24-.1-.04-.06-.09-.19-.16-.13Z"/>
      <path class="cls-1" d="M62.27,122.23v.02s.03,0,0-.02Z"/>
      <polygon class="cls-1" points="61.3 123.04 61.34 123.07 61.32 123.04 61.3 123.04"/>
      <path class="cls-1" d="M62.19,122.52c.08,0,.07-.07.05-.15-.02.05-.05.09-.09.12.02.03.03.05.04.02Z"/>
      <path class="cls-1" d="M61.58,122.56c.05.02.11.03.16.04-.07-.04-.19-.09-.16-.04Z"/>
      <path class="cls-1" d="M62.21,122.22h0s-.03-.02,0,0Z"/>
      <path class="cls-1" d="M62.21,122.22s.02.11.03.16c.02-.04.03-.08.02-.13-.02,0-.04-.02-.06-.04Z"/>
      <path class="cls-1" d="M61.93,124.42c-.11-.19-.07-.45.19-.35.04-.22-.46-.74-.78-1,.05.08.1.15.05.34.11.07.43.04.43.27-.11.2-.18.03-.32-.01.22.18,0,.47.24.77l.08-.22s.03.17.11.19Z"/>
      <path class="cls-1" d="M61.57,122.93l.03-.06c-.08,0-.16-.03-.33-.12-.02.14,0,.22.04.28l.25-.14v.04Z"/>
      <path class="cls-1" d="M61.82,122.72c.11.21.05.38.27.53.14-.12-.01-.23,0-.37-.19.22-.01-.15-.26-.13.02-.06.05-.1.08-.14-.06,0-.11.01-.18,0h.01s0,0,0,0h0s.04.03.02.03h0s.03.06.04.08c-.09,0-.05-.04-.04-.08l-.02-.03h0s-.15.27-.15.27c.07,0,.12-.06.21-.16Z"/>
      <path class="cls-1" d="M63.68,122.64s-.03-.02-.05-.03c0,.03.01.05.05.03Z"/>
      <path class="cls-1" d="M63.49,122.63s-.06-.12,0-.15c.09,0,.08.08.14.13-.01-.07-.01-.22-.19-.21v.04c-.14.03-.44-.08-.45-.11.17.13.29.22.5.31Z"/>
      <path class="cls-1" d="M62.68,122.76l-.11.24.23.08-.08-.09c.14-.05.02-.15-.03-.23Z"/>
      <polygon class="cls-1" points="61.22 122.96 61.1 122.74 61.19 123.1 61.22 122.96"/>
      <polygon class="cls-1" points="60.98 123.15 60.88 122.97 60.88 123.12 60.98 123.15"/>
      <path class="cls-1" d="M43.22,127.94l-.09.05s.07-.03.09-.05Z"/>
      <path class="cls-1" d="M43.77,128.06l.03-.1c-.04.05-.05.09-.03.1Z"/>
      <path class="cls-1" d="M53.84,125.7c-.13-.18-.29-.47-.24-.23l.06.23c.07-.05.12-.04.18,0Z"/>
      <path class="cls-1" d="M48.44,127.35l.03.07c.03-.08.06-.15.08-.22-.04.05-.07.1-.11.15Z"/>
      <path class="cls-1" d="M48.32,128.32l-.14-.16c.03.06.08.11.14.16Z"/>
      <path class="cls-1" d="M40.08,127.42l-.17.2c.15.05.12-.09.17-.2Z"/>
      <path class="cls-1" d="M58.2,124.62c-.12-.06-.2-.07-.26-.06.15.09.3.25.26.06Z"/>
      <path class="cls-1" d="M43.9,125.53c-.05.03-.08.08-.09.13.05-.03.09-.07.09-.13Z"/>
      <path class="cls-1" d="M57.71,124.65s.04.02.06.04c.05-.06.1-.11.18-.13-.11-.07-.21-.09-.24.09Z"/>
      <path class="cls-1" d="M34.21,117.34s.02-.01.04-.02c-.03-.02-.03,0-.04.02Z"/>
      <path class="cls-1" d="M38.01,116.95s-.05.03-.08.04c.02.01.04,0,.08-.04Z"/>
      <path class="cls-1" d="M59.88,123.67s0-.03,0,0h0Z"/>
      <path class="cls-1" d="M60.6,124.34s0,.07.03.11c-.02-.05-.03-.09-.03-.11Z"/>
      <path class="cls-1" d="M57.53,126.26h0s.03.03,0,0Z"/>
      <path class="cls-1" d="M60.02,123.72s-.07-.02-.11-.02c.02.01.05.02.11.02Z"/>
      <path class="cls-1" d="M59.95,123.63s.04,0,.06,0c-.01-.04-.03-.06-.06,0Z"/>
      <path class="cls-1" d="M59.81,123.72s.07-.03.1-.03c-.02,0-.03-.02-.03-.03-.02.01-.04.03-.07.05Z"/>
      <path class="cls-1" d="M35.81,123.8s0-.02,0-.03c-.13,0-.09.02,0,.03Z"/>
      <polygon class="cls-1" points="52.3 128.33 52.31 128.32 52.3 128.31 52.3 128.33"/>
      <path class="cls-1" d="M52.05,128.53c.09-.3.16-.27.25-.21l-.14-.67-.11.88Z"/>
      <path class="cls-1" d="M41.87,127.73l.14.25c-.3.29-.44.13-.33.46.2-.71.74.09.92-.63l.09.18s-.05.03-.08.01c.16.39.28-.49.56-.33.09.08.15.19.06.27l.27-.13c.06.03.02.15-.04.12h.36s0,.03,0,.03c.07-.1.22-.26.28-.33.07.12-.06.07-.05.16l.23-.14c.05.2-.15.36-.28.31.06.75.19-.16.52.33l-.2.06c.05.43.23.31.4.6-.03-.14-.33-.72-.08-.86.05.06.13.1.27-.02-.04.26.08.22.23.22l-.06.34c.17-.08.18-.26.29-.4.17.06.17.33.18.56.27.09-.13-.45.2-.47.21.16.39.04.69-.14.15.14-.05.21,0,.31l.17-.26s.01.09,0,.14c.13-.09.05-.34.24-.42.08-.38.33.6.6.18.05.1-.04.21-.04.35.34-.26.29-.19.58-.55l.21.24c-.15-.27.08-.56.27-.81-.05-.13-.09-.24-.12-.3l.29-.17c.03.06,0,.18-.06.32.02-.03.04-.06.06-.08.1.13.04.33-.05.52-.03-.07-.06-.14-.09-.22-.08.21-.16.44-.16.64.02-.04.06-.07.1-.09-.02.06-.04.11-.03.14,0,.04.04-.04.09-.13l.05.39.02-.15.38.25c.29-.38.54-.94.96-1.1-.11.28-.02.46-.03.8-.12-.36-.34.16-.56.07.12.04.09.2.06.26l.41-.32c-.01.28.08.21.19.32-.08-.54.3-.36.46-.53.01.18-.02.37-.22.32.23.41.28-.63.5-.3-.05,0-.08-.02-.09.07.11-.17.39-.05.33.11h-.05c.33.06.99-.03,1-.5,0,.06,0,.56-.02.65.16-.53.31-1.06.45-1.59-.02.4.26,1.32,0,1.57.08.05.18.11.34-.04-.06-.05-.18-.56-.11-.6.24.42.16.23.44.57-.09-.07-.06-.7.06-.7,0,.09.08.61.04.68l.24-.64c-.06.12.05.51.14.68-.05-.11.27-.02.35-.09l-.15-.12c.37.05.22-.9.56-.92-.02.13.02.78.21.83.03-.32.11-1.54.34-1.82l.09.16.18-.25c-.04.49-.25,1.54-.42,1.95.15.12.07.2.27.15.1.15-.06.27-.12.29.16,0,.32.02.48.02-.09-.35.28-.43.2-.73l-.42.47c-.08-.35.09-1.07.41-1.08.11.13.07.65.1.77.02-.13.25-.3.3-.22l-.09.22c.21.09.19-.53.48-.24.08,0,.33.4.29.19-.22-.37-.55-1.62-.55-1.94.03.02.46.29.59.47.2.28.03.8.2,1.04-.02-.1.01-.23.03-.28.1.06.05.31.2.22-.07-.36.35-.06,0-.32.13-.14.19.02.37-.05-.13-.21-.07-.83.05-.98.02.09.09.2.12.25.33-.06.55.04.85-.07.06.07.24.12.23.29.02-.08.02-.21.1-.25.29.23-.19.12.08.43-.06-.21.13-.37.22-.54-.16-.29-.32.05-.41.23-.16-.43-.1-.96.11-1.27.19-.2.21.23.23.15.47-.11.05-.89.53-.74.26.2.25.52.37.7-.15.18-.37-.04-.49.02l.21.06c-.02.11-.12.24-.22.19.23.19.77-.27,1.21-.23.02-.12.07-.26-.03-.34l-.09.09c-.2-.16.04-.39-.14-.42.06-.22.09-.52.33-.51l.2.27c-.05-.08-.22-.1-.22.02,0-.17.51.23.38-.2l-.25-.13c.05-.22.02-.62.23-.62-.24-.24-.02.05-.32-.21.34.36-.4.22,0,.56-.34-.32-.29-.05-.63-.3.06.09.15.16,0,.18,0,.03.01.07.02.1h-.01s.01,0,.01,0c0,.02,0,.02,0,0,.05.03.11.06.15.11.05.26-.17.37-.19.52-.11,0-.02-.13-.12-.21l-.03.23c-.12-.21-.39-.26-.27-.48l-.18.07c-.16-.07-.32-.06-.37.07-.1-.01-.1.34-.11.13l-.22.26-.03-.05c-.28.1-.44.6-.91.31-.07.09-.15.2-.33.19l-.1-.19c-.1.11-.44-.09-.42.14-.3-.5-.63.07-.88.02l.06.27c-.16.02-.28.14-.45.3l.07.23c-.12.24-.47-.08-.73,0,0-.09.07-.09.13-.04-.42-.47-.6.53-.96.18-.06.1-.12.08-.18.03,0,0,.01,0,.02-.02,0,0-.02,0-.03,0-.04-.04-.08-.08-.12-.11.04.05.08.1.1.11-.06.01-.14.06-.21.13l-.07-.25s0,0-.02.01c-.09-.08-.05.13.02.32-.04.05-.07.11-.09.17-.12-.41-.2.17-.35-.27-.03.22-.4.21-.4.68,0-.06-.04-.09,0-.09-.1-.04-.2-.08-.27.06l-.07-.33-.17.46c-.15-.19-.21-.31-.1-.57-.27.42-.23.17-.46.58v-.22c-.09.02-.22.31-.29.14-.23-.4-1.03,0-1.57-.4.1.63-.24-.28-.27.21-.03-.15-.1-.23-.01-.36-.27.15-.4-.25-.59.16-.03-.15.06-.22.04-.31-.02.03-.09.13-.11.04-.02-.09.04-.12.09-.19-.27.02-.32.48-.36.91-.13-.21-.2-.18-.32.09-.04-.14-.12-.3.06-.34-.1-.03-.58-.25-.61.1-.02-.09-.13-.03-.16,0-.22-.04-.23-.07-.45-.06l.05.06c-.12.41-.19.08-.37.11v-.04c-.36-.34-.18.13-.53-.26v.26c-.11.55-.32-.37-.57-.19l.06.16c-.15.17-.25-.8-.36-.88-.02-.05.05-.07.09-.1-.27-.37-.09.33-.34.38-.02-.19.12-.45-.03-.51-.05-.16-.56.51-.72.13.02.15.05.29-.08.38-.18.03-.36-.61-.6-.2-.01-.04-.02-.08,0-.12-.15.09-.46.11-.59.33.06-.9-.9.25-.72-.56l-.4-.05.03-.08c-.23-.11-.37.05-.51.22-.04-.07.02-.13.04-.17-.31-.26-.35-.23-.77.07l.05-.27c-.14.12-.36-.56-.79-.4.01-.03.04-.07.08-.1-.51.14-.52-1.04-1.08-.23l-.35.09c.27.23-.25.35-.2.56-.16-.02-.17-.44,0-.4v.06c.3-.41-.28-.37-.08-.67-.57-.33-.85-.94-1.2-1.38l-.25.31-.12-.17c.03-.1.19-.25.27-.14.12-.2-.3-.06-.37-.02-.05-.32.43-.2.38-.28l-.09-.07-.02.05c-.18.03-.33.12-.41-.03,0-.14.17-.18.16-.23.02-.02.03-.03-.03-.06l-.1-.22-.22.25c-.19-.02-.11-.22-.36.07.37-.42-.25-.96-.11-1.13-.27-.08-.3-.24-.32-.43-.05.06-.39.17-.38-.02.73-.06.26-.37.78-.53-.35.13-.1-.42-.59-.25.06-.14.27,0,.44-.1-.27-.32.25-.59.29-.92-.09-.04-.25-.03-.35-.16.17,0,.34,0,.51.01-.01-.08-.46-.3-.11-.27-.08-.02-.2-.05-.2-.11.39-.22.53-.55.78-.84.24-.28.63-.5,1.06-.18-.14-.14-.1-.18-.03-.21-.06-.03-.07-.22-.12-.34.14.09.26.17.37.28-.01-.36.28-.07.29-.4l-.09.06c.13-.42-.28-.88-.36-1.38-.08.24-.24.09-.45,0-.2-.1-.45-.14-.5.24-.12-.07,0-.18-.09-.28-.01.24-.09.33-.32.34v-.06c-.5.35-.84.32-1.45.72l.22.14c-.12.08-.2.05-.3.06.18.38.29-.29.5.12-.53-.22-.63.74-1.17.55-.12.2.29.1.17.29l-.17-.03.16.15c-.09.11-.31.09-.43.04.03-.03.01-.11.02-.16-.27.1-.18.55-.26.59l.18-.18c-.11.62-.48,1.4-.15,2.02l.12-.04c.22.43-.13.36.02.83h-.03c.13.07.21.18.22.3-.17-.09-.22.28-.41.15.34.42.24.2.75.36l-.17.13c.2.04.29.02.42.2-.23-.11-.23.25-.52.13-.22.65.69.47.22.96.59-.07.08-.51.24-.46.12-.17.45-.03.47.12.05.13-.5.57-.27.9-.02-.03-.06-.01-.08-.05-.03.2.32.13.24.41.33-.13.13.2.48-.05l-.29-.21c.22.09.71-.08.72.3-.08.04-.23.04-.32.03-.03.15.18.08.15.24-.34.26-.35-.25-.74-.23-.08.2.5.13.07.34.55-.26.2.35.72.23l-.2.17c.06,0,.2-.02.25.04l-.33.14c.35-.05.14.48.4.51-.34-.29.13-.3.12-.56.62.09-.23.72.35,1.01-.09-.02-.16-.31.02-.33.06.11.12.28.1.44.36.18.1-.25.33-.28-.07.33.23,0,.42.01l-.14.22c.29.37.38-.4.61-.03l-.33.23.23.02-.19.24c.31-.08.34,0,.49.18.04-.19.24-.41.41-.33.05.19-.17.19.08.27-.12.12-.28.28-.28,0-.05.07-.13.12-.18.19.05.23.31.19.4.24-.03-.03-.07-.06-.07-.1.17-.05.34-.11.51-.17.02.11-.06.17-.13.22.08,0,.18-.08.3-.06-.11.18-.19.39-.38.42l.44-.07c-.01.1.09.31.01.36.16.19.62-.21.83.03.03-.03.07-.06.13-.08.22.12.37.44.74.24l.06.41c.25-.02-.09-.52.31-.56.29-.05.02.34.08.47.18-.15.49-.48.66-.12-.1.05-.15-.02-.23,0ZM44.62,128.09c-.06.05-.19.2-.21.04.11-.29.13-.14.21-.04ZM48.82,127.87c-.04.08-.1.04-.17-.06.05-.02.11,0,.17.06ZM59.34,124.17s0,0,0,.01c-.14-.05-.09-.03,0-.01ZM59.59,124.18s-.01-.07-.04-.1c.01.07-.03.09-.09.1.04.06.09.09.12,0ZM36.77,122.15l-.03.07c-.11-.03-.04-.05.03-.07Z"/>
      <path class="cls-1" d="M48.33,128.21s-.01-.09-.02-.14c-.02.04-.03.09.02.14Z"/>
      <path class="cls-1" d="M40.11,127.39h0s-.02.02-.02.04l.03-.04Z"/>
      <path class="cls-1" d="M56.88,127.53c-.06-.02-.1-.06-.13-.11.01.06.05.11.13.11Z"/>
      <path class="cls-1" d="M60.4,123.25l-.09.13c.05-.04.1,0,.15.01-.03-.05-.1-.11-.07-.14Z"/>
      <path class="cls-1" d="M62.34,123.92s.04-.03.03-.07l-.08-.09c-.07.06-.07.18.04.17Z"/>
      <path class="cls-1" d="M60.96,123.93c.12.18.16.07.23-.02,0,0,0,0-.02,0-.14-.28-.17-.13-.21,0Z"/>
      <path class="cls-1" d="M61.2,123.89s.05-.05.08-.05c-.06-.11-.05,0-.08.05Z"/>
      <path class="cls-1" d="M59.77,123.93c.07.03-.1-.26-.04-.2-.08-.27-.13.44.04.2Z"/>
      <polygon class="cls-1" points="61.4 124.51 61.23 124.3 61.29 124.52 61.4 124.51"/>
      <path class="cls-1" d="M60.57,124.75h.19c-.02-.05-.02-.08,0-.11-.1.04-.22.05-.18.11Z"/>
      <path class="cls-1" d="M60.75,124.64s.09-.05.1-.11c-.02.02-.07.06-.1.11Z"/>
      <polygon class="cls-1" points="61.24 124.7 61.17 124.68 61.05 124.72 61.24 124.7"/>
      <path class="cls-1" d="M58.89,125.47l-.14.14c.02.09.08.13.14.07.02-.08.07-.14,0-.21Z"/>
      <path class="cls-1" d="M59.7,125.93c-.07-.03-.1-.09-.16-.16l.13.31.03-.16Z"/>
      <path class="cls-1" d="M59.22,126.22c.02.1-.16.36.06.24-.02-.09.13-.24-.06-.24Z"/>
      <polygon class="cls-1" points="56.36 126.71 56.4 126.69 56.26 126.16 56.36 126.71"/>
      <path class="cls-1" d="M54.09,128.51c.25.09,0-.35.24-.22.03-.14-.19-.11-.15-.23-.12.16-.2.09-.09.44Z"/>
      <path class="cls-1" d="M54.18,128.07s.04-.06.06-.09c-.03.04-.05.07-.06.09Z"/>
      <path class="cls-1" d="M38.38,117.18s.06.08.08.11l-.06-.19-.02.07Z"/>
      <path class="cls-1" d="M38.53,116.76l.02.35.06-.32s-.06.05-.08-.03Z"/>
      <path class="cls-1" d="M44.92,128.85l.02-.08c0-.09-.04-.11-.11-.13l.09.21Z"/>
      <polygon class="cls-1" points="42.97 128.25 43 128.26 43 127.94 42.97 128.25"/>
      <path class="cls-1" d="M41.19,128.27c.07.03.17-.02.23.01-.17.02-.15-.4-.23-.01Z"/>
    </g>
    <g>
      <path class="cls-1" d="M81.71,120.71c.05-.2-.41-.17-.49-.2.08.36.61.2.49.2Z"/>
      <polygon class="cls-1" points="82.61 124.09 82.42 124.03 82.87 124.53 82.61 124.09"/>
      <path class="cls-1" d="M82.53,127.15c.79-.27-.11-1.11.19-1.64l.18-.09-.63-.26c.08.67.49,1.53.26,1.99Z"/>
      <path class="cls-1" d="M80.8,128.74c.31-.1.26.36.1-.38-.03.04-.05.05-.08.07,0,.07,0,.16-.02.31Z"/>
      <path class="cls-1" d="M80.82,128.43c-.02-.32-.26.21,0,0h0Z"/>
      <path class="cls-1" d="M80.97,129.92l-.27-.43c-.18.09-.23.46-.36.32.14.44.33.35.63.11Z"/>
      <path class="cls-1" d="M81.54,130.33l-.11-.22c-.08.04-.1.09.11.22Z"/>
      <path class="cls-1" d="M81.19,129.64l.24.47c.13-.06.38-.06-.09-.21.23.04,0-.05-.15-.25Z"/>
      <path class="cls-1" d="M81.32,129.38c.18-.23.29-.54.55-.11-.1-.81-.65-.7-.55.11Z"/>
      <path class="cls-1" d="M83.34,127.32l.24-.31-.26-.28c.13.14-.22.61.02.59Z"/>
      <path class="cls-1" d="M80.53,132.54c.17.03.45-.14.67-.17l-.19-.31c-.12.16-.23.46-.48.48Z"/>
      <path class="cls-1" d="M81.2,132.38l.28.47c.04-.42-.1-.49-.28-.47Z"/>
      <polygon class="cls-1" points="82.42 130.41 81.82 129.64 82.43 130.56 82.42 130.41"/>
      <polygon class="cls-1" points="80.49 134.32 80.1 134.05 80.68 134.53 80.49 134.32"/>
      <path class="cls-1" d="M80.54,135.5c-.32-.2-.55.26-.74.05.05.32.33.6.57.84-.14-.26-.1-.54.17-.9Z"/>
      <path class="cls-1" d="M80.73,136.81c-.08-.13-.21-.27-.36-.42.07.14.18.28.36.42Z"/>
      <path class="cls-1" d="M81.39,133.64c-.1.03-.37.1-.48.36l.47-.18c0-.06,0-.12,0-.18Z"/>
      <path class="cls-1" d="M81.39,133.81h-.01c-.02.2-.03.34-.03.4,0-.05.02-.17.05-.4Z"/>
      <path class="cls-1" d="M81.39,133.59v.05s.06-.03,0-.05Z"/>
      <path class="cls-1" d="M81.98,131.63c.26.28.54.85.95.3-.32-.2-.55.11-.95-.3Z"/>
      <path class="cls-1" d="M81.98,133.37l.11-.49c-.12,0-.31.1-.44-.04l.32.53Z"/>
      <polygon class="cls-1" points="82.13 133.61 81.98 133.37 81.94 133.55 82.13 133.61"/>
      <path class="cls-1" d="M81.18,135.97c.2.22.22.45.25.71.1-.28.15-.57.15-.85-.15-.04-.41-.17-.4.14Z"/>
      <path class="cls-1" d="M81.32,134.92l.03.05s.05-.05-.03-.05Z"/>
      <path class="cls-1" d="M81.39,139.27s.06-.03.09-.04h-.08s0,.04,0,.04Z"/>
      <path class="cls-1" d="M81.67,135.79c.09-.21-.02-.34-.16-.46.04.16.07.33.07.51.07.02.11.02.09-.05Z"/>
      <path class="cls-1" d="M80.94,137.54c.1-.11.19-.23.26-.36-.15.11-.39.32-.26.36Z"/>
      <path class="cls-1" d="M81.22,135.04s-.02-.02-.02-.03c-.1.07-.05.06.02.03Z"/>
      <path class="cls-1" d="M81.22,135.04c.07.11.18.2.29.29-.04-.13-.09-.25-.15-.35-.03.03-.09.05-.13.07Z"/>
      <path class="cls-1" d="M84.41,140.11c-.44-.05-.83-.61-.35-1.09-.32-.48-1.77-.19-2.58.21.19.02.37.02.62.51.24-.17.58-1.07.97-.65.22.65-.16.53-.4.84.55-.26.78.84,1.58.71l-.27-.57c.13,0,.32.2.44.05Z"/>
      <path class="cls-1" d="M81.53,138.31l-.05-.2c-.08.23-.26.39-.6.68.21.34.37.41.52.43l.08-.98.06.07Z"/>
      <path class="cls-1" d="M81.49,137.2c.47.16.67.65,1.19.36-.03-.59-.39-.42-.6-.77.11.95-.26-.28-.54.41-.08-.19-.1-.36-.12-.51-.06.17-.13.33-.22.49l.03-.02h0s0,0,0,0c.06-.04.1-.05.06,0,0,0,0,.01,0,.02.07,0,.12.03.18.05-.1.27-.12.04-.18-.05-.02,0-.05-.01-.07-.01h0s.25.96.25.96c.07-.2.06-.45.01-.9Z"/>
      <path class="cls-1" d="M83.94,132.45s-.08.03-.11.03c.06.06.1.09.11-.03Z"/>
      <path class="cls-1" d="M83.65,132.84c-.07-.07-.25-.13-.2-.35.15-.19.23,0,.39,0-.12-.14-.34-.48-.57-.06l.06.07c-.17.38-.77.87-.83.8.43-.11.74-.2,1.16-.45Z"/>
      <path class="cls-1" d="M82.69,135.05l.22.8.42-.4-.25.02c.1-.45-.2-.36-.39-.41Z"/>
      <polygon class="cls-1" points="81.15 139.36 80.65 139.25 81.35 139.71 81.15 139.36"/>
      <polygon class="cls-1" points="81.19 140.38 80.75 140.34 81.01 140.61 81.19 140.38"/>
      <path class="cls-1" d="M40.36,160.48l-.25.08c.12-.02.19-.05.25-.08Z"/>
      <path class="cls-1" d="M42.05,160.78l.07-.21c-.1.11-.14.19-.07.21Z"/>
      <path class="cls-1" d="M73.36,157.53c-.32-.39-.68-1.01-.62-.52l.11.48c.21-.09.37-.05.51.05Z"/>
      <path class="cls-1" d="M56.18,159.86s.06.1.09.15c.09-.16.18-.3.26-.44-.11.09-.23.18-.35.29Z"/>
      <path class="cls-1" d="M55.79,161.82l-.43-.35c.09.12.23.23.43.35Z"/>
      <path class="cls-1" d="M31.06,159.24l-.37.42c.42.09.29-.19.37-.42Z"/>
      <path class="cls-1" d="M80.65,150.45c-.24.22-.35.41-.42.57.34-.23.79-.41.42-.57Z"/>
      <path class="cls-1" d="M41.83,155.56c-.15.06-.23.15-.24.26.16-.06.25-.13.24-.26Z"/>
      <path class="cls-1" d="M80.07,151.73c.06-.03.1-.06.14-.1-.03-.2-.05-.4.03-.61-.25.17-.43.38-.17.7Z"/>
      <path class="cls-1" d="M16.69,131.73s.04-.05.07-.06c-.06-.02-.07.01-.07.06Z"/>
      <path class="cls-1" d="M23.85,123.54c0,.09-.05.24-.09.38.05-.05.08-.17.09-.38Z"/>
      <path class="cls-1" d="M80.87,144.47c-.02-.21-.05-.04,0,0h0Z"/>
      <path class="cls-1" d="M82.8,143.49c.05.05.12.09.23.09-.11-.02-.19-.05-.23-.09Z"/>
      <path class="cls-1" d="M82.22,154.58v.02c.1-.02.08-.02,0-.02Z"/>
      <path class="cls-1" d="M81.1,144.16c-.06.08-.11.17-.15.27.04-.04.09-.12.15-.27Z"/>
      <path class="cls-1" d="M80.87,144.19c.02-.07.04-.13.05-.19-.08-.03-.13,0-.05.19Z"/>
      <path class="cls-1" d="M80.89,144.76c0-.12.02-.23.06-.34-.03.04-.06.06-.08.04,0,.06,0,.15.01.3Z"/>
      <path class="cls-1" d="M16.84,150.44s.01-.04.03-.07c-.26-.21-.2-.1-.03.07Z"/>
      <path class="cls-1" d="M67.8,162.53s.02-.02.03-.02l-.03-.02v.04Z"/>
      <path class="cls-1" d="M67,162.87c.35-.59.54-.51.8-.38l-.24-1.39-.56,1.77Z"/>
      <path class="cls-1" d="M36.29,159.91l.47.53c-.79.58-1.24.25-.83.94.35-1.46,2.18.25,2.52-1.22l.31.37c-.1-.03-.13.05-.23.02.59.83.71-.98,1.58-.62.3.17.48.42.24.56l.77-.25c.2.06.11.31-.09.25l1.1.05v.04c.18-.21.58-.52.77-.64.24.25-.16.14-.12.33l.65-.27c.19.42-.36.72-.77.6.34,1.57.55-.3,1.63.75l-.59.11c.24.9.73.65,1.31,1.27-.12-.3-1.1-1.5-.4-1.78.17.14.4.22.8-.03-.07.53.29.45.73.47l-.12.7c.49-.14.5-.5.82-.78.51.14.55.69.61,1.17.82.21-.47-.94.53-.96.66.35,1.18.12,2.05-.2.46.3-.13.42.02.64l.49-.52c.1.02.05.19.02.28.38-.18.11-.7.69-.83.23-.76,1.05,1.25,1.84.44.15.22-.12.42-.1.7,1.02-.49.87-.35,1.73-1.06l.63.52c-.45-.57.23-1.14.82-1.61-.15-.27-.28-.51-.38-.62l.9-.31c.1.12,0,.36-.18.64.06-.05.13-.11.17-.16.29.28.1.68-.16,1.06-.1-.15-.19-.3-.28-.46-.25.41-.49.87-.48,1.28.06-.08.18-.14.3-.17-.07.11-.11.21-.09.29.02.08.13-.07.29-.24l.14.8.07-.31,1.12.57c.89-.73,1.68-1.84,3-2.1-.36.56-.12.94-.18,1.62-.32-.75-1.04.26-1.71.06.35.1.25.42.15.53l1.26-.59c-.06.56.23.43.54.68-.18-1.12.95-.69,1.46-1,.01.37-.12.75-.72.62.63.87.92-1.25,1.54-.52-.15,0-.22-.06-.29.13.36-.32,1.19-.02.98.29h-.15c.98.18,2.99.11,3.15-.83,0,.12-.15,1.13-.22,1.32l1.8-3.13c-.17.8.4,2.74-.42,3.18.23.12.52.26,1.02-.02-.16-.12-.38-1.17-.17-1.24.59.9.41.48,1.14,1.25-.24-.17.04-1.44.41-1.4-.06.19.03,1.25-.11,1.38l.94-1.24c-.23.22-.04,1.05.17,1.41-.1-.24.82.02,1.09-.11l-.42-.28c1.1.17,1.04-1.76,2.08-1.77-.1.26-.22,1.61.38,1.71.24-.66.82-3.16,1.41-3.82l.24.32c.16-.19.32-.38.45-.57,0,.51-.14,1.34-.44,2.15-.29.81-.71,1.58-1.05,2.02.49.22.18.42.87.27.31.29-.3.58-.51.63.56,0,1.14-.04,1.75-.12-.25-.68,1.1-1.11.8-1.69-.48.46-1.01.87-1.55,1.25-.11-.36.04-.92.31-1.43.28-.51.66-.95,1.16-1.1.37.15.33,1.31.42,1.53.07-.29.83-.93,1.01-.82l-.28.58c.38-.03.52-.37.67-.7.15-.33.33-.58.86-.55.24-.13,1.29.19,1.04-.18-.95-.31-2.6-2.35-2.87-2.96.08.04,1.28-.09,1.77-.05.37.07.6.42.79.8.2.37.34.76.69.81-.14-.15-.18-.5-.18-.62.31-.11.42.49.73-.05-.52-.51.72-.97-.35-.6.12-.59.48-.41.77-1.01-.52-.08-1.16-1.28-1.2-1.79.16.1.44.11.56.1.47-.92.95-1.36,1.21-2.31.2-.04.53-.46.79-.18-.1-.17-.31-.36-.27-.66.76-.45-.04.7.82.42-.42-.14-.43-.92-.63-1.39-.68.02-.31.95-.14,1.44-.91-.22-1.69-1.13-1.97-2.13-.11-.78.65-.24.54-.39.35-1.44-1.47-1.39-.69-2.52.63-.43,1.18.07,1.62,0,.17.66-.46.95-.48,1.38l.34-.5c.18.22.28.67.08.88.59-.35.35-2.5.87-3.63-.19-.21-.38-.58-.63-.42l.07.37c-.49.31-.63-.71-.88-.26-.31-.5-.83-1.06-.54-1.73l.68-.11c-.2,0-.42.43-.22.63-.29-.29.95-1.02.07-1.36l-.48.47c-.33-.5-1.03-1.11-.81-1.71-.68.26.08.14-.72.55.98-.35-.08,1.54.96.97-.92.42-.41.75-1.2,1.3.22-.01.43-.19.31.31.06.02.15.08.19.12,0,.01-.01.02-.02.03l.03-.03s.04.03,0-.01c.1-.12.22-.21.35-.24.51.27.46,1.06.71,1.35-.12.29-.25-.14-.5.01l.38.42c-.5.02-.87.71-1.12.03l-.06.6c-.3.33-.46.81-.27,1.13-.14.27.47.77.11.48l.2.97h-.12c-.18.86.52,2.02-.6,2.77.04.3.11.64-.18,1.04l-.44-.06c.03.4-.77.76-.41,1.07-.61-.11-.8.2-.96.51-.13.34-.24.72-.46.83l.4.39c-.13.11-.22.25-.3.42-.09.15-.18.34-.28.58l.32.38c-.05.28-.34.35-.65.4-.34,0-.68,0-.96.13-.03-.2.14-.19.28-.14-.55-.36-.8-.08-1.16.26-.34.33-.76.68-1.22.32-.18.2-.34.16-.5.04.02,0,.04-.01.05-.03-.02,0-.05,0-.09,0-.1-.08-.2-.17-.31-.24.1.12.19.21.26.25-.16.02-.4.1-.65.23l-.13-.53s-.04,0-.06.02c-.25-.19-.19.26-.04.66-.13.09-.24.2-.33.33-.22-.85-.68.3-.98-.62-.18.45-1.36.33-1.5,1.27,0-.12-.09-.18.06-.19-.3-.11-.6-.22-.88.05l-.12-.68-.67.91c-.4-.42-.56-.66-.15-1.18-.97.78-.78.28-1.62,1.06l.05-.44c-.29.01-.78.59-.94.22-.63-.85-3.23-.22-4.86-1.1.25,1.31-.74-.62-.87.38-.08-.31-.3-.49-.02-.74-.87.25-1.24-.57-1.89.23-.08-.31.21-.43.14-.62-.07.06-.29.25-.36.06-.07-.19.14-.25.29-.37-.87,0-1.03.92-1.16,1.8-.41-.45-.63-.41-1,.14-.13-.3-.36-.62.19-.68-.3-.07-1.82-.58-1.92.12-.08-.19-.42-.09-.51-.01-.68-.11-.73-.18-1.41-.18l.17.13c-.35.82-.58.13-1.13.18l.02-.08c-1.17-.74-.57.24-1.71-.6v.54c-.24,1.12-1-.8-1.76-.45l.22.33c-.44.35-.89-1.68-1.25-1.87-.07-.11.15-.14.28-.2-.92-.8-.22.67-1,.73-.09-.39.31-.92-.19-1.06-.21-.33-1.64,1.01-2.22.18.11.31.22.62-.16.78-.55.02-1.28-1.29-1.91-.47-.06-.09-.07-.17-.06-.24-.45.16-1.39.16-1.72.61-.07-1.86-2.7.43-2.39-1.24l-1.27-.14.07-.16c-.78-.27-1.14.07-1.5.41-.16-.15,0-.28.04-.36-1.1-.57-1.23-.51-2.38.1v-.56c-.32.25-1.49-1.19-2.76-.84.03-.06.07-.16.18-.21-1.43.33-2.69-2.19-3.63-.38l-.96.27c1.05.42-.38.8,0,1.23-.46,0-.97-.86-.41-.83l.06.12c.45-.96-1.26-.7-1.02-1.38-1.01-.25-1.89-.72-2.42-1.24-.56-.55-.65-.94-.85-1.53-.24.14-.47.28-.7.44-.05-.16-.09-.34-.13-.53.14-.2.56-.33.63,0,.39-.27-.53-.49-.7-.5.09-.45.34-.4.55-.28.22.11.41.27.4.16l-.11-.3-.08.09c-.37-.21-.72-.19-.74-.76.13-.38.48-.23.5-.38.06,0,.08-.05,0-.23l.03-.84-.62.37c-.33-.36,0-.8-.71-.38.53-.31.64-1.12.65-1.9.04-.79-.02-1.56.17-1.73-.42-.58-.37-1.13-.25-1.8-.15.16-.88.19-.73-.39,1.45.37.75-1.01,1.87-1.35-.76.33.05-1.67-1.04-1.15.18-.47.55.05.95-.27-.4-1.24.76-2.48.83-3.92-.19-.06-.53.12-.75-.23l1.1-.56c-.04-.3-1.05-.48-.29-.86-.17.04-.44.1-.46-.1.75-1.29.89-2.74,1.16-4.17.28-1.42.69-2.84,1.98-3.89-.48.24-.43,0-.36-.29-.14.15-.45-.16-.72-.2.35-.31.72-.59,1.08-.87-.62-.46.39-1.18-.21-1.55l-.02.39c-.58-.78-1.98-.02-2.94-.44.68.87-1.86,1.04-.87,2.4-.27.14-.27-.28-.54-.24.36.38.35.68,0,1.16l-.09-.09c-.33,1.52-.94,2.04-1.65,3.67h.54c-.16.35-.33.38-.5.52.67.6.29-1.01,1.05-.42-1.16.23-.61,2.55-1.86,2.62-.13.56.63-.04.5.52l-.35.08.39.23c-.14.35-.58.46-.86.42.05-.08-.02-.27-.03-.37-.47.41-.14,1.39-.3,1.53l.3-.51c0,1.6-.74,3.43-.29,5.04l.26-.08c.31,1.21-.41.88-.33,2.18l-.05-.05c.22.28.3.63.24.97-.26-.35-.62.55-.9.1.39,1.31.33.67,1.18,1.57l-.43.16c.35.31.55.34.62.98-.33-.54-.64.38-1.08-.23-.97,1.34.86,2.04-.46,2.67,1.13.61.63-1.19.88-.84.37-.28.84.51.73.93,0,.41-1.43.81-1.33,1.92,0-.11-.09-.11-.09-.22-.25.44.46.77.07,1.39.72.21.09.76.97.67-.14-.35-.27-.71-.38-1.05.32.61,1.37.92,1.23,2.02-.2-.01-.52-.24-.7-.42-.15.39.34.53.23.95-.42.13-.63-.23-.78-.67-.15-.44-.25-.94-.63-1.24-.33.41.91,1.23-.1,1.09.65.13.71.45.79.86.08.4.21.93.88,1.12l-.48.22c.16.11.57.26.75.5-.29,0-.6-.02-.9-.06.5.22.68.63.89,1.05.2.43.42.86.86.98-.72-.53-.68-.76-.52-.88.16-.13.44-.23.31-.61.97.41.97.76,1.03,1.29.04.48.16,1.12,1.18,1.42-.29-.03-.84-.74-.33-.76.31.27.7.65.82.98,1.25.33,0-.57.62-.69.19.75.65-.05,1.19-.11l-.15.51c1.16.68.63-.97,1.6-.29l-.64.6.61-.04-.27.56c.72-.28.87-.13,1.43.19-.05-.4.31-.92.84-.81.28.4-.32.44.44.55-.25.28-.53.64-.74.09-.07.16-.25.28-.32.44.3.45.95.33,1.22.38-.1-.04-.22-.1-.26-.19l1.25-.47c.12.23-.05.36-.22.48.23,0,.44-.21.77-.18-.18.4-.26.84-.77.94l1.14-.23c.03.2.41.63.25.75.52.39,1.59-.51,2.28-.02.06-.07.15-.14.33-.16.69.25,1.22.9,2.19.49l.33.86c.7-.04-.46-1.09.7-1.16.83-.09.17.71.4.98.47-.31,1.29-.97,1.9-.22-.27.1-.43-.05-.67-.03ZM44.6,160.92c-.18.09-.55.39-.62.06.27-.58.37-.27.62-.06ZM57.32,160.97c-.13.17-.31.07-.5-.15.15-.03.32,0,.5.15ZM81.18,146.78s.01.01.02.02c-.24.32-.14.21-.02-.02ZM81.46,146.09c-.07-.08-.14-.07-.22-.05.13.06.13.22.08.39.14-.04.24-.12.14-.34ZM20.01,147.57l-.13.15c-.18-.29-.03-.22.13-.15Z"/>
      <path class="cls-1" d="M55.84,161.6c-.04-.09-.04-.19-.05-.29-.07.08-.08.19.05.29Z"/>
      <path class="cls-1" d="M31.13,159.16s-.02,0-.02-.01c-.02.03-.03.06-.05.09l.07-.08Z"/>
      <path class="cls-1" d="M82.33,158.46c-.18.1-.32.12-.44.1.09.09.23.1.44-.1Z"/>
      <path class="cls-1" d="M80.7,142.24l.13.47c-.02-.23.1-.31.19-.42-.12,0-.31.09-.31-.05Z"/>
      <path class="cls-1" d="M84.08,138.21c-.06-.07,0-.15-.07-.22l-.25.02c.01.3.21.5.32.2Z"/>
      <path class="cls-1" d="M82.48,141.85c.45-.03.3-.33.23-.66,0,.02,0,.04,0,.06-.62-.11-.43.25-.23.6Z"/>
      <path class="cls-1" d="M82.7,141.11c-.02-.1-.03-.21,0-.31-.25-.04-.05.12,0,.31Z"/>
      <path class="cls-1" d="M81.21,145.18c.12-.15-.57-.12-.38-.2-.56-.2.65,1.05.38.2Z"/>
      <polygon class="cls-1" points="83.97 141.62 83.41 141.72 83.85 141.92 83.97 141.62"/>
      <path class="cls-1" d="M83.49,144.22l.17-.52c-.09,0-.14-.06-.18-.15-.03.33-.15.68.01.67Z"/>
      <path class="cls-1" d="M83.47,143.55c.02-.17,0-.33-.08-.43,0,.09.02.29.08.43Z"/>
      <polygon class="cls-1" points="84.12 142.34 84 142.5 83.95 142.87 84.12 142.34"/>
      <path class="cls-1" d="M82.91,149.84l.07.59c.18.09.32-.04.28-.27-.11-.16-.15-.38-.34-.32Z"/>
      <path class="cls-1" d="M84.64,148.29c-.13.15-.26.14-.45.21l.68.09-.23-.31Z"/>
      <path class="cls-1" d="M84.57,150.03c.18.08.4.96.48.19-.18-.09-.24-.71-.48-.19Z"/>
      <polygon class="cls-1" points="80.26 157.95 80.36 157.84 79.54 157.06 80.26 157.95"/>
      <path class="cls-1" d="M73.12,163.29c.78.23.14-.7.85-.41.16-.28-.58-.24-.41-.48-.44.31-.68.15-.44.89Z"/>
      <path class="cls-1" d="M73.57,162.4c.07-.05.14-.11.22-.18-.13.08-.18.13-.22.18Z"/>
      <polygon class="cls-1" points="24.94 122.32 25.31 122.03 24.86 122.13 24.94 122.32"/>
      <path class="cls-1" d="M24.46,121.28l.7.19-.5-.48c0,.1-.02.29-.19.29Z"/>
      <path class="cls-1" d="M45.64,162.51l.06-.17c-.04-.19-.15-.22-.35-.28l.29.45Z"/>
      <polygon class="cls-1" points="39.69 161.08 39.79 161.11 39.7 160.44 39.69 161.08"/>
      <path class="cls-1" d="M34.5,160.99c.2.07.47-.02.67.04-.47.03-.57-.85-.67-.04Z"/>
    </g>
  </g>
</svg>